/* XPM */
static char * capy3_xpm[] = {
"64 64 58 1",
" 	c #659F3F",
".	c #5F983C",
"+	c #619A3D",
"@	c #639D3E",
"#	c #5B9139",
"$	c #73AF46",
"%	c #8BC752",
"&	c #70A844",
"*	c #79B248",
"=	c #6BA241",
"-	c #72AA45",
";	c #6DA542",
">	c #7EBB4C",
",	c #74AD46",
"'	c #6AA542",
")	c #6FAD45",
"!	c #6AA843",
"~	c #66A240",
"{	c #5D953B",
"]	c #6CAB44",
"^	c #7EB74B",
"/	c #96D057",
"(	c #88C551",
"_	c #6FAB44",
":	c #588D37",
"<	c #689F3F",
"[	c #7AB94A",
"}	c #8FCA54",
"|	c #82C04E",
"1	c #81BA4C",
"2	c #649A3D",
"3	c #75B147",
"4	c #83BD4D",
"5	c #6DA843",
"6	c #74B448",
"7	c #68A442",
"8	c #85C24F",
"9	c #70AF46",
"0	c #72B147",
"a	c #7BB54A",
"b	c #86BF4F",
"c	c #91CC55",
"d	c #88C250",
"e	c #76B849",
"f	c #94CE56",
"g	c #8BC451",
"h	c #78B549",
"i	c #76AF47",
"j	c #9CD65A",
"k	c #99D358",
"l	c #8DC953",
"m	c #7EBD4C",
"n	c #4D2B32",
"o	c #AD7757",
"p	c #7A4841",
"q	c #341C27",
"r	c #241527",
"s	c #090A14",
" . +@ #$%&*=-;#@@+>>,=')!~ { {])@^/=(_:{~<>['#@{ . +@ #$%&*=-;#@",
"^#{*}$#|1$<:23#4*++;{56@:>5~[7 {+{%8):-,~.90:7{)^#{*}$#|1$<:23#4",
"}^{%aa~45#~+']^b#:#>b2,+5c&d,#!]+&5e@_a{##.52#>a}^{%aa~45#~+']^b",
"-f]0 #{@;=7'67%.=1<.|>^_[g0{h3@|;/f$+):i[ @+|4|{-f]0 #{@;=7'67%.",
"{|]{@ ~:bi+99*;: df12[>&~25,<()[:{gg#:4jh+5 {_+ {|]{@ ~:bi+99*;:",
">~~d|.[5%;+.'c2:##5($.+#^={a)ah99!__~iki#7h'#!{&>~~d|.[5%;+.'c2:",
"><cl22&6>{di^b#*!#~~~~7:^f:{+@~+'+i>{83@@ 3-,|%&><cl22&6>{di^b#*",
")lg#~'49]:-fa;14#:#~{ 8)=j 6#+$@:_#969{ !(8d%'i})lg#~'49]:-fa;14",
">|#3|.-h{#:l1;l@:+h/b@1}@/_+ik%~#~@79' 3]$}8! h6>|#3|.-h{#:l1;l@",
"6@)3.{#_. :&1+):::{a/%e/>)~aj}+7@8^7@@5/1@|h;/g#6@)3.{#_. :&1+):",
"7)]:#7:# +:+.:#7>84*<3el} 3j%#{.+,c{~|>lk2')kf+:7)]:#7:# +:+.:#7",
"{7:5e7';.#'=2#@9>(cf8)@i}!fl~0^1a'}^lm0>j*~%k<.{{7:5e7';.#'=2#@9",
"!{5(={@d;:)=i:::#&. 0ee$|0%+5lcd$@6ha8m fa9/3:{m!{5(={@d;:)=i:::",
"9 8&:#:5b:~=<,:{1a:# !e666)]e3+~ {9h3%'7h>6|'{{}9 8&:#:5b:~=<,:{",
";0i7[e;{a@:#b-:*a{a/c[e6@9]0g[.~~~6j|7~d/g6)6(^c;0i7[e;{a@:#b-:*",
" 6~e5._14;@.*{2a<%k4'@+57!+dl  >15#1/{%ji+0#: 88 6~e5._14;@.*{2a",
"#5d//[#5fk-@.5 2>|<{++e_3+if~ag4lk,2}mk=21/c~,$0#5d//[#5fk-@.5 2",
"+>|*-!#:@%k<7@=fl{2&,*+:[~>*fk%5{4%~6|-^f}1i9__ +>|*-!#:@%k<7@=f",
" .::.<2::.cb7.nnnnnnnn|7!99|f':{@{e~0]ig=#~~#:#~ .::.<2::.cb7./g",
":#@)[4db3~&dnnnnnnnnnnnnno0()088 <0 ~+]b}d,:.@9.:#@)[4db3~&d+}g~",
"@ (5+::22@7nnnnnnnnnnnnnnoooob1&>|69#+!^8lk*:!@.@ (5+::22@7!hd#7",
"!_}+.5]7~nnnnnnpppnnnnnnnnoooooooo+@=5 +:+6[###~!_}+.5]7~:;5]#)3",
" a8:d%!5nnnnnnnnpppnnnnnnnonoopooooooil5{{:{ 9>& a8:d%!5:+^{+  4",
"^>[1/~.nnnnnppppnnpppnnnnnnnnppopppoooo'm>~77 3f^>[1/~.>&)=+ + +",
"f(m/*4nnnnnnnnpppppppppnnnnnnppppoooooooo=:~#+~&f(m/*4/44_*3a%4~",
"=%m>l}nnnnnnnnppppnnpppnnnnnnnnpooppoooooo)>4a<#=%m>l};:3*4{@=4c",
"!960|nnnnnpnnnnppnnpppnnnnnnnnnnppppppoooooo|lfm!960|{#{ >2:=^+;",
"e9)9_nnnnnnpppppppppppppppnnnppnpppppooooooo: i|e9)9_1{ {+7-;>+:",
" 6)@nnnnnnppppppppppppppppnnnnpppppppoopooooooooo6)@{c1@!+!54# .",
":.6!nnnnnppppnnnpppnnpppnnnnnnpppppppoppoooooooooooo:=k=h43@)@)#",
"@>0nnnnnnnnnnnppppnnppppnpnnnpppppppppppoooppooooopooo4*da^d@9{^",
">=~nnnnnnnnnnpppppppppppppnnppnppppppppppopppooooqppooo3g#:ah!4d",
"@=nnnqqnnnnnpppppppppppppnnnnnnpppppppppppppoooonqopppoo,#:#9)h#",
"a,qnqqnnnnnpppnppppnpppppppnnppppppppppppppooooonqqppppooh#:'9{'",
"4+qqqnnnnnnppnppppnnpppnnpnnnnnpppppppppppppppooonpppppooo~{#7{@",
"<aqqqnqqnnnnnnpppnnpppppnnnnnnpppppppppppppppoopppprrrppooo'{>&a",
";f*qqqqqnnnnnnppppppppppppnnnnppppppppppppppppoppppppppppoo7i,;g",
">&:#qqqqnqqnnppppppppppppnnnpppppppppppppppppppppppppppnnnqqa2-b",
"'{:.!qqnqqnnpppnpnnpnnppnnqnpnnnpppppppppppppppppppppnnnnqss'^d ",
"#.2h##qqqqnpppnnnnppnnpnnqqnnnnnppppppppppnpppppppnnpnnnqqqss/&2",
"##41::qqqqnnnnnnnnppnnnnnqqnqnnpppnppppnppnnppnnppnnpnnqqqqrq}2%",
"*:d&2^3qqqnnnnnnnnpnnqnnqqqqqnnpnnnppppnnppnpppnpnnnpnnqqqqrq^d^",
"j*9=b;2qqqqnnqnnqnnnqqqqqqqqqqnnnnppppppnppnnnnnnnqqqqqqqrrq>1b{",
"-f5['24/qqqnqqnnqqqqqqqq!{<qqqqqnnnpnnpnnnnnqqqqqqqqqqqqqrqqc|2~",
"#-60li#.rrqqqnnqqq<+@ .%-,>+#{qqqnnnnnpnnnnqq(f^#-60liqqqq!=/_il",
"k))%c.&#:rqqqnqqq)8ccgi)[0.*l/f>qqqnnnnnnn#::58kk))%c.&#:::.$51=",
"%c9>.:*;:rqqqqqq@#{@5^|0)_lcd*i,!qqqnnnrr#<5*|{@%c9>.:*;:<#:#.7#",
".h0 :: i-rrqqrr~#:.,>>)9)h3..)~: qrqqnnr{07[% #..h0 :: i-d{.<. ~",
" . +@ #$%rrrqr#@@+>>,=')!~ { {])@^rrqqrr~<>['#@{ . +@ #$%&*=-;#@",
"^#{*}$#|1rrrqr#4*++;{56@:>5~[7 {+{rrqqr,~.90:7{)^#{*}$#|1$<:23#4",
"}^{%aa~45#rrrr^b#:#>b2,+5c&d,#!]+&5rrrr{##.52#>a}^{%aa~45#~+']^b",
"-f]0 #{@;=rrrrr.=1<.|>^_[g0{h3@|;/f$rrrr[ @+|4|{-f]0 #{@;=7'67%.",
"{|]{@ ~:bi+rrrrr df12[>&~25,<()[:{gg#rrrr+5 {_+ {|]{@ ~:bi+99*;:",
">~~d|.[5%;+.rrrr##5($.+#^={a)ah99!__~irrr7h'#!{&>~~d|.[5%;+.'c2:",
"><cl22&6>{di^b#*!#~~~~7:^f:{+@~+'+i>{83@@ 3-,|%&><cl22&6>{di^b#*",
")lg#~'49]:-fa;14#:#~{ 8)=j 6#+$@:_#969{ !(8d%'i})lg#~'49]:-fa;14",
">|#3|.-h{#:l1;l@:+h/b@1}@/_+ik%~#~@79' 3]$}8! h6>|#3|.-h{#:l1;l@",
"6@)3.{#_. :&1+):::{a/%e/>)~aj}+7@8^7@@5/1@|h;/g#6@)3.{#_. :&1+):",
"7)]:#7:# +:+.:#7>84*<3el} 3j%#{.+,c{~|>lk2')kf+:7)]:#7:# +:+.:#7",
"{7:5e7';.#'=2#@9>(cf8)@i}!fl~0^1a'}^lm0>j*~%k<.{{7:5e7';.#'=2#@9",
"!{5(={@d;:)=i:::#&. 0ee$|0%+5lcd$@6ha8m fa9/3:{m!{5(={@d;:)=i:::",
"9 8&:#:5b:~=<,:{1a:# !e666)]e3+~ {9h3%'7h>6|'{{}9 8&:#:5b:~=<,:{",
";0i7[e;{a@:#b-:*a{a/c[e6@9]0g[.~~~6j|7~d/g6)6(^c;0i7[e;{a@:#b-:*",
" 6~e5._14;@.*{2a<%k4'@+57!+dl  >15#1/{%ji+0#: 88 6~e5._14;@.*{2a"};
