/* XPM */
static char * capyenemy1_xpm[] = {
"64 64 113 2",
"  	c #659F3F",
". 	c #5F983C",
"+ 	c #619A3D",
"@ 	c #639D3E",
"# 	c #5B9139",
"$ 	c #73AF46",
"% 	c #8BC752",
"& 	c #70A844",
"* 	c #79B248",
"= 	c #6BA241",
"- 	c #72AA45",
"; 	c #6DA542",
"> 	c #7EBB4C",
", 	c #74AD46",
"' 	c #6AA542",
") 	c #6FAD45",
"! 	c #6AA843",
"~ 	c #66A240",
"{ 	c #5D953B",
"] 	c #6CAB44",
"^ 	c #7EB74B",
"/ 	c #96D057",
"( 	c #88C551",
"_ 	c #6FAB44",
": 	c #588D37",
"< 	c #689F3F",
"[ 	c #7AB94A",
"} 	c #8FCA54",
"| 	c #82C04E",
"1 	c #81BA4C",
"2 	c #649A3D",
"3 	c #75B147",
"4 	c #83BD4D",
"5 	c #6DA843",
"6 	c #74B448",
"7 	c #68A442",
"8 	c #85C24F",
"9 	c #70AF46",
"0 	c #72B147",
"a 	c #7BB54A",
"b 	c #86BF4F",
"c 	c #91CC55",
"d 	c #88C250",
"e 	c #76B849",
"f 	c #94CE56",
"g 	c #8BC451",
"h 	c #78B549",
"i 	c #76AF47",
"j 	c #9CD65A",
"k 	c #99D358",
"l 	c #8DC953",
"m 	c #7EBD4C",
"n 	c #4D2B32",
"o 	c #AD7757",
"p 	c #7A4841",
"q 	c #71292F",
"r 	c #96252B",
"s 	c #B32026",
"t 	c #C91B20",
"u 	c #B81F24",
"v 	c #BF3732",
"w 	c #CB322D",
"x 	c #A42228",
"y 	c #DB553E",
"z 	c #D65B41",
"A 	c #B77153",
"B 	c #341C27",
"C 	c #A93E38",
"D 	c #D12F2A",
"E 	c #D52E29",
"F 	c #88262D",
"G 	c #CC322D",
"H 	c #DC553D",
"I 	c #8F443E",
"J 	c #F31714",
"K 	c #E22622",
"L 	c #C21D22",
"M 	c #D35D43",
"N 	c #FB0102",
"O 	c #F90204",
"P 	c #FD0202",
"Q 	c #F7120F",
"R 	c #FC0404",
"S 	c #FD0402",
"T 	c #090A14",
"U 	c #C6352F",
"V 	c #DE2924",
"W 	c #FA0C09",
"X 	c #FC0203",
"Y 	c #FB0907",
"Z 	c #B43B35",
"` 	c #CA332D",
" .	c #241527",
"..	c #D6171C",
"+.	c #BB1E24",
"@.	c #E42521",
"#.	c #D42E29",
"$.	c #9F161F",
"%.	c #AE141D",
"&.	c #E11317",
"*.	c #C11D22",
"=.	c #D1302B",
"-.	c #C33630",
";.	c #D92B27",
">.	c #C6342F",
",.	c #A52228",
"'.	c #C71018",
").	c #84463F",
"!.	c #E52420",
"~.	c #BD121A",
"{.	c #C23630",
"].	c #D10E15",
"^.	c #8F1721",
"  .   + @   # $ % & * = - ; # @ @ + > > , = ' ) ! ~   {   { ] ) @ ^ / = ( _ : { ~ < > [ ' # @ {   .   + @   # $ % & * = - ; # @ ",
"^ # { * } $ # | 1 $ < : 2 3 # 4 * + + ; { 5 6 @ : > 5 ~ [ 7   { + { % 8 ) : - , ~ . 9 0 : 7 { ) ^ # { * } $ # | 1 $ < : 2 3 # 4 ",
"} ^ { % a a ~ 4 5 # ~ + ' ] ^ b # : # > b 2 , + 5 c & d , # ! ] + & 5 e @ _ a { # # . 5 2 # > a } ^ { % a a ~ 4 5 # ~ + ' ] ^ b ",
"- f ] 0   # { @ ; = 7 ' 6 7 % . = 1 < . | > ^ _ [ g 0 { h 3 @ | ; / f $ + ) : i [   @ + | 4 | { - f ] 0   # { @ ; = 7 ' 6 7 % . ",
"{ | ] { @   ~ : b i + 9 9 * ; :   d f 1 2 [ > & ~ 2 5 , < ( ) [ : { g g # : 4 j h + 5   { _ +   { | ] { @   ~ : b i + 9 9 * ; : ",
"> ~ ~ d | . [ 5 % ; + . ' c 2 : # # 5 ( $ . + # ^ = { a ) a h 9 9 ! _ _ ~ i k i # 7 h ' # ! { & > ~ ~ d | . [ 5 % ; + . ' c 2 : ",
"> < c l 2 2 & 6 > { d i ^ b # * ! # ~ ~ ~ ~ 7 : ^ f : { + @ ~ + ' + i > { 8 3 @ @   3 - , | % & > < c l 2 2 & 6 > { d i ^ b # * ",
") l g # ~ ' 4 9 ] : - f a ; 1 4 # : # ~ {   8 ) = j   6 # + $ @ : _ # 9 6 9 {   ! ( 8 d % ' i } ) l g # ~ ' 4 9 ] : - f a ; 1 4 ",
"> | # 3 | . - h { # : l 1 ; l @ : + h / b @ 1 } @ / _ + i k % ~ # ~ @ 7 9 '   3 ] $ } 8 !   h 6 > | # 3 | . - h { # : l 1 ; l @ ",
"6 @ ) 3 . { # _ .   : & 1 + ) : : : { a / % e / > ) ~ a j } + 7 @ 8 ^ 7 @ @ 5 / 1 @ | h ; / g # 6 @ ) 3 . { # _ .   : & 1 + ) : ",
"7 ) ] : # 7 : #   + : + . : # 7 > 8 4 * < 3 e l }   3 j % # { . + , c { ~ | > l k 2 ' ) k f + : 7 ) ] : # 7 : #   + : + . : # 7 ",
"{ 7 : 5 e 7 ' ; . # ' = 2 # @ 9 > ( c f 8 ) @ i } ! f l ~ 0 ^ 1 a ' } ^ l m 0 > j * ~ % k < . { { 7 : 5 e 7 ' ; . # ' = 2 # @ 9 ",
"! { 5 ( = { @ d ; : ) = i : : : # & .   0 e e $ | 0 % + 5 l c d $ @ 6 h a 8 m   f a 9 / 3 : { m ! { 5 ( = { @ d ; : ) = i : : : ",
"9   8 & : # : 5 b : ~ = < , : { 1 a : #   ! e 6 6 6 ) ] e 3 + ~   { 9 h 3 % ' 7 h > 6 | ' { { } 9   8 & : # : 5 b : ~ = < , : { ",
"; 0 i 7 [ e ; { a @ : # b - : * a { a / c [ e 6 @ 9 ] 0 g [ . ~ ~ ~ 6 j | 7 ~ d / g 6 ) 6 ( ^ c ; 0 i 7 [ e ; { a @ : # b - : * ",
"  6 ~ e 5 . _ 1 4 ; @ . * { 2 a < % k 4 ' @ + 5 7 ! + d l     > 1 5 # 1 / { % j i + 0 # :   8 8   6 ~ e 5 . _ 1 4 ; @ . * { 2 a ",
"# 5 d / / [ # 5 f k - @ . 5   2 > | < { + + e _ 3 + i f ~ a g 4 l k , 2 } m k = 2 1 / c ~ , $ 0 # 5 d / / [ # 5 f k - @ . 5   2 ",
"+ > | * - ! # : @ % k < 7 @ = f l { 2 & , * + : [ ~ > * f k % 5 { 4 % ~ 6 | - ^ f } 1 i 9 _ _   + > | * - ! # : @ % k < 7 @ = f ",
"  . : : . < 2 : : . c b 7 n n n n n n n n / | 7 ! 9 9 | f ' : { @ { e ~ 0 ] i g = # ~ ~ # : # ~   . : : . < 2 : : . c b 7 . / g ",
": # @ ) [ 4 d b 3 ~ & n n n n n n n n n n n n n 0 ] 0 ( ) 0 8 8   < 0   ~ + ] b } d , : . @ 9 . : # @ ) [ 4 d b 3 ~ & d + } g ~ ",
"@   ( 5 + : : 2 2 @ n n n n n n n n n n n n n n o o o o 0 b 1 & > | 6 9 # + ! ^ 8 l k * o o o o o o o o o o : 2 2 @ 7 ! h d # 7 ",
"! _ } + . 5 ] 7 n n n n n n p p p n q r s s r t r o o o o o o o o + + @ = 5   + : + o o o p p o o p p p o o o 7 ~ : ; 5 ] # ) 3 ",
"  a 8 : d % ! n n n n n n q u v v w s r q q r x r y s z A p o o o o o o o i l 5 o o o o o o o n B o p o p p o p o + ^ { +     4 ",
"^ > [ 1 / ~ n n n n n p C D E F q p p p n n n n n n q u v G H p p p o o o o o o o o o o o o o n B o p p p p p o o o = +   +   + ",
"f ( m / * n n n n n n u u I v v v C p p p p n n n n n n p J K v o o o o o o o o o o o o o o o o n B p p p p p p p p o o a % 4 ~ ",
"= % m > l n n n n n L r n p w p I r s C p p n n n n n x s t p A M p p p p o o o o o o o o p o o o n p p N O P Q p n n B B n 4 c ",
"! 9 6 0 n n n n q v n n n n v I n n I C w s q n n r s r u u n p C C p p o o p p o o o o p o o p p p p p P P R S n n n B T T T ; ",
"e 9 ) 9 n n n n r r p p p p C C p p p p p I U D V r q q v p n p I v p p o p p o o p p p p o o p p p p p W X R Y n n B B B T B : ",
"  6 ) n n n n u u p p p p p I v p p p I C v v Z ` L F s n p p p p I v p p p p o o o p p p p o o p p p p p p n n n B B B B  .B . ",
": . 6 n n n n s I p p p n n n w C v L s C I p n n n ..+.r p p p p p v I p p p p o p p p p p p p p p p p p p n n n B B B B  .B # ",
"@ > n n n n L n n n n n n I C @.#.q n p p p p n p r r q C w C p p p C C p p p p o p p p p p p p p p p p n p p n n B B B B  .B ^ ",
"> = n n n x t n q r r L w v C I v p p p p p p p p L n p p n C C p p C C p p p p p p p p p p p p p p p p n n n n B B B  . . .B d ",
"@ n n n B $.u L s r r p p p p p C C p p p p p p u u n n n n p C C p C C p p p p p p p p p p p p n n p n n n B B B B B B B B h # ",
"a B n B %.&.*.r r r C C C r C C Z D r I I I I I =.I q q C C C C -.;.>.I p p p p p p p p p p p p p n n B B B B B B B B B B 9 { ' ",
"4 B B B q t ,.r r r C C r C C C C t x v v v +...U s s s r r C C C C K p p p p p p p p p p n p n n B B B B _ { 2 _ 3 ~ { # 7 { @ ",
"< B B B n B '.x n n n n n p p p n x D p p C v n n n n n n p p p p I U p p p p p p p p p p n n n B B / } $   # : ' 7 { ' { > & a ",
"; f B B B B B L n n n n n p p p p p v I C C p p p n n n n p p p ).!.U p p p p p p p p n p p n n B f * # @ @ { : { : : 7 i , ; g ",
"> & : B B B B n %.~.n n p p p p p p C -.C p p p n n n p p C r -.{.=.p p p p p p p n p p n n n n > & : # # # + : + i ; # a 2 - b ",
"' { : . B B n B B u L v -.C q p n n p r n p p n n B r v L r r -.I p p p p p n p p n n p n n n 0 ' { : . ! $ ] # # 5 b * ' ^ d   ",
"# . 2 h # B B B B n p I -.r s s s v C r r C r r ].^.r q n n p p p n p p p p n n p p n n n n { # # . 2 h # #   ' : + { 3 @ / & 2 ",
"# # 4 1 : B B B B n n n n n n q q I C r r r r r B B n B n n p n n n p p p p p n p p n n : > c = # # 4 1 : : # 5 2   _ @ 1 } 2 % ",
"* : d & 2 ^ B B B n n n n n n n n p n n B n n B B B B B n n n n n p p n n p n n n n n + + # ^ j * : d & 2 ^ 3 - < : 4 4 4 ^ d ^ ",
"j * 9 = b ; B B B B n n B n n B n n n B B B B B B B B B B n B n n n n n n p n n n n ^ + @ 7 + * j * 9 = b ; 2 - = { 2 / > 1 b { ",
"- f 5 [ ' 2 4 B B B n B B n n B B B B B B B B 8 ! { B B B B B B B B n n n n n n n - a b ]   . : - f 5 [ ' 2 4 / % & : b c | 2 ~ ",
"# - 6 0 l i #  . .B B B n n B B B , < + @   . % - , > + # { . @ B B B n n n  . .h / c - + ( f ^ # - 6 0 l i # . , i ! = / _ i l ",
"k ) ) % c . & #  .B B B n B B B { ) 8 c c g i ) [ 0 . * l / f > .  .B B n n  .6 | - # : : 5 8 k k ) ) % c . & # : : : . $ 5 1 = ",
"% c 9 > . : * ;  .B B B B B B # @ # { @ 5 ^ | 0 ) _ l c d * i , !  . .B B  . .0 # # < 5 * | { @ % c 9 > . : * ; : < # : # . 7 # ",
". h 0   : :   i  . .B B  . .  ~ # : . , > > ) 9 ) h 3 . . ) ~ :    . .B B  .! ~ { 0 7 [ %   # . . h 0   : :   i - d { . < .   ~ ",
"  .   + @   # $  . . .B  .; # @ @ + > > , = ' ) ! ~   {   { ] ) @ ^  . .B  .: { ~ < > [ ' # @ {   .   + @   # $ % & * = - ; # @ ",
"^ # { * } $ # |  . . .B  .3 # 4 * + + ; { 5 6 @ : > 5 ~ [ 7   { + {  . . . .- , ~ . 9 0 : 7 { ) ^ # { * } $ # | 1 $ < : 2 3 # 4 ",
"} ^ { % a a ~ 4 5  . . . .] ^ b # : # > b 2 , + 5 c & d , # ! ] + &  . . . .a { # # . 5 2 # > a } ^ { % a a ~ 4 5 # ~ + ' ] ^ b ",
"- f ] 0   # { @ ;  . . . . .% . = 1 < . | > ^ _ [ g 0 { h 3 @ | ; / f  . . . .i [   @ + | 4 | { - f ] 0   # { @ ; = 7 ' 6 7 % . ",
"{ | ] { @   ~ : b i  . . . . .:   d f 1 2 [ > & ~ 2 5 , < ( ) [ : { g g  . . . .h + 5   { _ +   { | ] { @   ~ : b i + 9 9 * ; : ",
"> ~ ~ d | . [ 5 % ; +  . . . .: # # 5 ( $ . + # ^ = { a ) a h 9 9 ! _ _ ~  . . .# 7 h ' # ! { & > ~ ~ d | . [ 5 % ; + . ' c 2 : ",
"> < c l 2 2 & 6 > { d i ^ b # * ! # ~ ~ ~ ~ 7 : ^ f : { + @ ~ + ' + i > { 8 3 @ @   3 - , | % & > < c l 2 2 & 6 > { d i ^ b # * ",
") l g # ~ ' 4 9 ] : - f a ; 1 4 # : # ~ {   8 ) = j   6 # + $ @ : _ # 9 6 9 {   ! ( 8 d % ' i } ) l g # ~ ' 4 9 ] : - f a ; 1 4 ",
"> | # 3 | . - h { # : l 1 ; l @ : + h / b @ 1 } @ / _ + i k % ~ # ~ @ 7 9 '   3 ] $ } 8 !   h 6 > | # 3 | . - h { # : l 1 ; l @ ",
"6 @ ) 3 . { # _ .   : & 1 + ) : : : { a / % e / > ) ~ a j } + 7 @ 8 ^ 7 @ @ 5 / 1 @ | h ; / g # 6 @ ) 3 . { # _ .   : & 1 + ) : ",
"7 ) ] : # 7 : #   + : + . : # 7 > 8 4 * < 3 e l }   3 j % # { . + , c { ~ | > l k 2 ' ) k f + : 7 ) ] : # 7 : #   + : + . : # 7 ",
"{ 7 : 5 e 7 ' ; . # ' = 2 # @ 9 > ( c f 8 ) @ i } ! f l ~ 0 ^ 1 a ' } ^ l m 0 > j * ~ % k < . { { 7 : 5 e 7 ' ; . # ' = 2 # @ 9 ",
"! { 5 ( = { @ d ; : ) = i : : : # & .   0 e e $ | 0 % + 5 l c d $ @ 6 h a 8 m   f a 9 / 3 : { m ! { 5 ( = { @ d ; : ) = i : : : ",
"9   8 & : # : 5 b : ~ = < , : { 1 a : #   ! e 6 6 6 ) ] e 3 + ~   { 9 h 3 % ' 7 h > 6 | ' { { } 9   8 & : # : 5 b : ~ = < , : { ",
"; 0 i 7 [ e ; { a @ : # b - : * a { a / c [ e 6 @ 9 ] 0 g [ . ~ ~ ~ 6 j | 7 ~ d / g 6 ) 6 ( ^ c ; 0 i 7 [ e ; { a @ : # b - : * ",
"  6 ~ e 5 . _ 1 4 ; @ . * { 2 a < % k 4 ' @ + 5 7 ! + d l     > 1 5 # 1 / { % j i + 0 # :   8 8   6 ~ e 5 . _ 1 4 ; @ . * { 2 a "};
