/* XPM */
static char * capyenemy3_xpm[] = {
"64 64 117 2",
"  	c #659F3F",
". 	c #5F983C",
"+ 	c #619A3D",
"@ 	c #639D3E",
"# 	c #5B9139",
"$ 	c #73AF46",
"% 	c #8BC752",
"& 	c #70A844",
"* 	c #79B248",
"= 	c #6BA241",
"- 	c #72AA45",
"; 	c #6DA542",
"> 	c #7EBB4C",
", 	c #74AD46",
"' 	c #6AA542",
") 	c #6FAD45",
"! 	c #6AA843",
"~ 	c #66A240",
"{ 	c #5D953B",
"] 	c #6CAB44",
"^ 	c #7EB74B",
"/ 	c #96D057",
"( 	c #88C551",
"_ 	c #6FAB44",
": 	c #588D37",
"< 	c #689F3F",
"[ 	c #7AB94A",
"} 	c #8FCA54",
"| 	c #82C04E",
"1 	c #81BA4C",
"2 	c #649A3D",
"3 	c #75B147",
"4 	c #83BD4D",
"5 	c #6DA843",
"6 	c #74B448",
"7 	c #68A442",
"8 	c #85C24F",
"9 	c #70AF46",
"0 	c #72B147",
"a 	c #7BB54A",
"b 	c #86BF4F",
"c 	c #91CC55",
"d 	c #88C250",
"e 	c #76B849",
"f 	c #94CE56",
"g 	c #8BC451",
"h 	c #78B549",
"i 	c #76AF47",
"j 	c #9CD65A",
"k 	c #99D358",
"l 	c #8DC953",
"m 	c #7EBD4C",
"n 	c #4D2B32",
"o 	c #AD7757",
"p 	c #7A4841",
"q 	c #71292F",
"r 	c #96252B",
"s 	c #B32026",
"t 	c #C91B20",
"u 	c #B81F24",
"v 	c #BF3732",
"w 	c #CB322D",
"x 	c #A42228",
"y 	c #C21D22",
"z 	c #D35D43",
"A 	c #B77153",
"B 	c #A93E38",
"C 	c #D12F2A",
"D 	c #D52E29",
"E 	c #9E413B",
"F 	c #CC322D",
"G 	c #F31714",
"H 	c #E22622",
"I 	c #8F443E",
"J 	c #C6352F",
"K 	c #DE2924",
"L 	c #B43B35",
"M 	c #CA332D",
"N 	c #88262D",
"O 	c #D6171C",
"P 	c #BB1E24",
"Q 	c #E42521",
"R 	c #D42E29",
"S 	c #341C27",
"T 	c #9F161F",
"U 	c #B4131C",
"V 	c #C33630",
"W 	c #AE141D",
"X 	c #E00A11",
"Y 	c #C11D22",
"Z 	c #D1302B",
"` 	c #D92B27",
" .	c #C6342F",
"..	c #651A25",
"+.	c #A52228",
"@.	c #F11916",
"#.	c #FA0C0B",
"$.	c #FA0A07",
"%.	c #F31613",
"&.	c #C71018",
"*.	c #F0050B",
"=.	c #F60306",
"-.	c #FD0202",
";.	c #F7100C",
">.	c #BF111A",
",.	c #84463F",
"'.	c #E52420",
").	c #F21916",
"!.	c #F41612",
"~.	c #FB0907",
"{.	c #F60F0D",
"].	c #BD121A",
"^.	c #C23630",
"/.	c #8F1721",
"(.	c #090A14",
"_.	c #D3181D",
":.	c #241527",
"  .   + @   # $ % & * = - ; # @ @ + > > , = ' ) ! ~   {   { ] ) @ ^ / = ( _ : { ~ < > [ ' # @ {   .   + @   # $ % & * = - ; # @ ",
"^ # { * } $ # | 1 $ < : 2 3 # 4 * + + ; { 5 6 @ : > 5 ~ [ 7   { + { % 8 ) : - , ~ . 9 0 : 7 { ) ^ # { * } $ # | 1 $ < : 2 3 # 4 ",
"} ^ { % a a ~ 4 5 # ~ + ' ] ^ b # : # > b 2 , + 5 c & d , # ! ] + & 5 e @ _ a { # # . 5 2 # > a } ^ { % a a ~ 4 5 # ~ + ' ] ^ b ",
"- f ] 0   # { @ ; = 7 ' 6 7 % . = 1 < . | > ^ _ [ g 0 { h 3 @ | ; / f $ + ) : i [   @ + | 4 | { - f ] 0   # { @ ; = 7 ' 6 7 % . ",
"{ | ] { @   ~ : b i + 9 9 * ; :   d f 1 2 [ > & ~ 2 5 , < ( ) [ : { g g # : 4 j h + 5   { _ +   { | ] { @   ~ : b i + 9 9 * ; : ",
"> ~ ~ d | . [ 5 % ; + . ' c 2 : # # 5 ( $ . + # ^ = { a ) a h 9 9 ! _ _ ~ i k i # 7 h ' # ! { & > ~ ~ d | . [ 5 % ; + . ' c 2 : ",
"> < c l 2 2 & 6 > { d i ^ b # * ! # ~ ~ ~ ~ 7 : ^ f : { + @ ~ + ' + i > { 8 3 @ @   3 - , | % & > < c l 2 2 & 6 > { d i ^ b # * ",
") l g # ~ ' 4 9 ] : - f a ; 1 4 # : # ~ {   8 ) = j   6 # + $ @ : _ # 9 6 9 {   ! ( 8 d % ' i } ) l g # ~ ' 4 9 ] : - f a ; 1 4 ",
"> | # 3 | . - h { # : l 1 ; l @ : + h / b @ 1 } @ / _ + i k % ~ # ~ @ 7 9 '   3 ] $ } 8 !   h 6 > | # 3 | . - h { # : l 1 ; l @ ",
"6 @ ) 3 . { # _ .   : & 1 + ) : : : { a / % e / > ) ~ a j } + 7 @ 8 ^ 7 @ @ 5 / 1 @ | h ; / g # 6 @ ) 3 . { # _ .   : & 1 + ) : ",
"7 ) ] : # 7 : #   + : + . : # 7 > 8 4 * < 3 e l }   3 j % # { . + , c { ~ | > l k 2 ' ) k f + : 7 ) ] : # 7 : #   + : + . : # 7 ",
"{ 7 : 5 e 7 ' ; . # ' = 2 # @ 9 > ( c f 8 ) @ i } ! f l ~ 0 ^ 1 a ' } ^ l m 0 > j * ~ % k < . { { 7 : 5 e 7 ' ; . # ' = 2 # @ 9 ",
"! { 5 ( = { @ d ; : ) = i : : : # & .   0 e e $ | 0 % + 5 l c d $ @ 6 h a 8 m   f a 9 / 3 : { m ! { 5 ( = { @ d ; : ) = i : : : ",
"9   8 & : # : 5 b : ~ = < , : { 1 a : #   ! e 6 6 6 ) ] e 3 + ~   { 9 h 3 % ' 7 h > 6 | ' { { } 9   8 & : # : 5 b : ~ = < , : { ",
"; 0 i 7 [ e ; { a @ : # b - : * a { a / c [ e 6 @ 9 ] 0 g [ . ~ ~ ~ 6 j | 7 ~ d / g 6 ) 6 ( ^ c ; 0 i 7 [ e ; { a @ : # b - : * ",
"  6 ~ e 5 . _ 1 4 ; @ . * { 2 a < % k 4 ' @ + 5 7 ! + d l     > 1 5 # 1 / { % j i + 0 # :   8 8   6 ~ e 5 . _ 1 4 ; @ . * { 2 a ",
"# 5 d / / [ # 5 f k - @ . 5   2 > | < { + + e _ 3 + i f ~ a g 4 l k , 2 } m k = 2 1 / c ~ , $ 0 # 5 d / / [ # 5 f k - @ . 5   2 ",
"+ > | * - ! # : @ % k < 7 @ = f l { 2 & , * + : [ ~ > * f k % 5 { 4 % ~ 6 | - ^ f } 1 i 9 _ _   + > | * - ! # : @ % k < 7 @ = f ",
"  . : : . < 2 : : . c b 7 . n n n n n n n n | 7 ! 9 9 | f ' : { @ { e ~ 0 ] i g = # ~ ~ # : # ~   . : : . < 2 : : . c b 7 . / g ",
": # @ ) [ 4 d b 3 ~ & d n n n n n n n n n n n n n o 0 ( ) 0 8 8   < 0   ~ + ] b } d , : . @ 9 . : # @ ) [ 4 d b 3 ~ & d + } g ~ ",
"@   ( 5 + : : 2 2 @ 7 n n n n n n n n n n n n n n o o o o b 1 & > | 6 9 # + ! ^ 8 l k * : ! @ . @   ( 5 + : : 2 2 @ 7 ! h d # 7 ",
"! _ } + . 5 ] 7 ~ n n n n n n p p p q r s s r t r n o o o o o o o o + @ = 5   + : + 6 [ # # # ~ ! _ } + . 5 ] 7 ~ : ; 5 ] # ) 3 ",
"  a 8 : d % ! 5 n n n n n q u s v w v r q q r x r y z u A o p o o o o o o i l 5 { { : {   9 > &   a 8 : d % ! 5 : + ^ { +     4 ",
"^ > [ 1 / ~ . n n n n n B C D E q n p p p n n n n n q u s F F o p p p o o o o ' m > ~ 7 7   3 f ^ > [ 1 / ~ . > & ) = +   +   + ",
"f ( m / * 4 n n n n n u u q v v v B p p p p p n n n n n n G H v p o o o o o o o o = : ~ # + ~ & f ( m / * 4 / 4 4 _ * 3 a % 4 ~ ",
"= % m > l } n n n n y r n n w p I B s r p p p n n n n x s t n I z o p p o o o o o o ) > 4 a < # = % m > l } ; : 3 * 4 { @ = 4 c ",
"! 9 6 0 | n n n q s p n n n s I p n q B w v q n n r s r u u n n B B p p p p o o o o o o | l f m ! 9 6 0 | { # {   > 2 : = ^ + ; ",
"e 9 ) 9 _ n n n r r n p p p B B p p p p p I J C K B q q s p p n I v p p p o o o o o o o :   i | e 9 ) 9 _ 1 {   { + 7 - ; > + : ",
"  6 ) @ n n n u u n p p p p I v p p p I B v v L M w N s n n p p p I v p p o o p o o o o o o o o o 6 ) @ { c 1 @ ! + ! 5 4 #   . ",
": . 6 ! n n n s q p p p p n n y B v w s r I p p n n O P r n p p p p v I p o p p o o o o o o o o o o o o : = k = h 4 3 @ ) @ ) # ",
"@ > 0 n n n y n n n n n n q B Q R I n n p p p p n B r q r w B p p p B B p p p p o o o p p o o o o o p o o o 4 * d a ^ d @ 9 { ^ ",
"> = ~ n n x t n q r r y y v B I v p p p p p p p p w n n p p r B p p B B p p p p p o p p p o o o o S p p o o o 3 g # : a h ! 4 d ",
"@ = n n n T U y s r r n p p p p B B p p p p p p V u n n n n n B B p B B p p p p p p p p o o o o n S o p p p o o , # : # 9 ) h # ",
"a , S n W X Y r r r r B B B r B L C B q I I I I Z I I q r B B B V `  .I p p p p p p p o o o o o n S S p p p p o o h # : ' 9 { ' ",
"4 + S S ..t +.r r r r B B r B B B C x s v v J O P v s s r r r B B B H p p p p p p p p p p p o o o n p @.#.$.%.o o o ~ { # 7 { @ ",
"< a S S S n &.T n n n n n n p p p x t p p B v p n n n n n n p p p I J p p p p p p p p p p o o p p p p *.=.-.;.p o o o ' { > & a ",
"; f * S S S S >.n n n n n n p p p p v I B B p p p p n n n n p p ,.'.J p p p p p p p p p p p o p p p p ).!.~.{.p p o o 7 i , ; g ",
"> & : # S S S S s ].S n n p p p p p B V B p p p p n n n p B B V ^.Z p p p p p p p p p p p p p p p p p p p p p n n n S S a 2 - b ",
"' { : . ! S S n S U y s V B I n p n n B n n p p n n /.s w r r u I p p p p p p p p p p p p p p p p p p p p n n n n S (.(.' ^ d   ",
"# . 2 h # # S S S S n I V B s s s s B B r r B r _././.q n n n n p p p p p p p p p p n p p p p p p p n n p n n n S S S (.(./ & 2 ",
"# # 4 1 : : S S S S n n n n n q q q B B r r r r n S S n S n n p p p n p p p p n p p n n p p n n p p n n p n n S S S S :.S } 2 % ",
"* : d & 2 ^ 3 S S S n n n n n n n n p n n S n n S S S S S n n p n n n p p p p n n p p n p p p n p n n n p n n S S S S :.S ^ d ^ ",
"j * 9 = b ; 2 S S S S n n S n n S n n n S S S S S S S S S S n n n n p p p p p p n p p n n n n n n n S S S S S S S :.:.S > 1 b { ",
"- f 5 [ ' 2 4 / S S S n S S n n S S S S S S S S ! { < S S S S S n n n p n n p n n n n n S S S S S S S S S S S S S :.S S c | 2 ~ ",
"# - 6 0 l i # . :.:.S S S n n S S S < + @   . % - , > + # { S S S n n n n n p n n n n S S ( f ^ # - 6 0 l i S S S S ! = / _ i l ",
"k ) ) % c . & # : :.S S S n S S S ) 8 c c g i ) [ 0 . * l / f > S S S n n n n n n n # : : 5 8 k k ) ) % c . & # : : : . $ 5 1 = ",
"% c 9 > . : * ; : :.S S S S S S @ # { @ 5 ^ | 0 ) _ l c d * i , ! S S S n n n :.:.# < 5 * | { @ % c 9 > . : * ; : < # : # . 7 # ",
". h 0   : :   i - :.:.S S :.:.~ # : . , > > ) 9 ) h 3 . . ) ~ :   S :.S S n n :.{ 0 7 [ %   # . . h 0   : :   i - d { . < .   ~ ",
"  .   + @   # $ % :.:.:.S :.# @ @ + > > , = ' ) ! ~   {   { ] ) @ ^ :.:.S S :.:.~ < > [ ' # @ {   .   + @   # $ % & * = - ; # @ ",
"^ # { * } $ # | 1 :.:.:.S :.# 4 * + + ; { 5 6 @ : > 5 ~ [ 7   { + { :.:.S S :., ~ . 9 0 : 7 { ) ^ # { * } $ # | 1 $ < : 2 3 # 4 ",
"} ^ { % a a ~ 4 5 # :.:.:.:.^ b # : # > b 2 , + 5 c & d , # ! ] + & 5 :.:.:.:.{ # # . 5 2 # > a } ^ { % a a ~ 4 5 # ~ + ' ] ^ b ",
"- f ] 0   # { @ ; = :.:.:.:.:.. = 1 < . | > ^ _ [ g 0 { h 3 @ | ; / f $ :.:.:.:.[   @ + | 4 | { - f ] 0   # { @ ; = 7 ' 6 7 % . ",
"{ | ] { @   ~ : b i + :.:.:.:.:.  d f 1 2 [ > & ~ 2 5 , < ( ) [ : { g g # :.:.:.:.+ 5   { _ +   { | ] { @   ~ : b i + 9 9 * ; : ",
"> ~ ~ d | . [ 5 % ; + . :.:.:.:.# # 5 ( $ . + # ^ = { a ) a h 9 9 ! _ _ ~ i :.:.:.7 h ' # ! { & > ~ ~ d | . [ 5 % ; + . ' c 2 : ",
"> < c l 2 2 & 6 > { d i ^ b # * ! # ~ ~ ~ ~ 7 : ^ f : { + @ ~ + ' + i > { 8 3 @ @   3 - , | % & > < c l 2 2 & 6 > { d i ^ b # * ",
") l g # ~ ' 4 9 ] : - f a ; 1 4 # : # ~ {   8 ) = j   6 # + $ @ : _ # 9 6 9 {   ! ( 8 d % ' i } ) l g # ~ ' 4 9 ] : - f a ; 1 4 ",
"> | # 3 | . - h { # : l 1 ; l @ : + h / b @ 1 } @ / _ + i k % ~ # ~ @ 7 9 '   3 ] $ } 8 !   h 6 > | # 3 | . - h { # : l 1 ; l @ ",
"6 @ ) 3 . { # _ .   : & 1 + ) : : : { a / % e / > ) ~ a j } + 7 @ 8 ^ 7 @ @ 5 / 1 @ | h ; / g # 6 @ ) 3 . { # _ .   : & 1 + ) : ",
"7 ) ] : # 7 : #   + : + . : # 7 > 8 4 * < 3 e l }   3 j % # { . + , c { ~ | > l k 2 ' ) k f + : 7 ) ] : # 7 : #   + : + . : # 7 ",
"{ 7 : 5 e 7 ' ; . # ' = 2 # @ 9 > ( c f 8 ) @ i } ! f l ~ 0 ^ 1 a ' } ^ l m 0 > j * ~ % k < . { { 7 : 5 e 7 ' ; . # ' = 2 # @ 9 ",
"! { 5 ( = { @ d ; : ) = i : : : # & .   0 e e $ | 0 % + 5 l c d $ @ 6 h a 8 m   f a 9 / 3 : { m ! { 5 ( = { @ d ; : ) = i : : : ",
"9   8 & : # : 5 b : ~ = < , : { 1 a : #   ! e 6 6 6 ) ] e 3 + ~   { 9 h 3 % ' 7 h > 6 | ' { { } 9   8 & : # : 5 b : ~ = < , : { ",
"; 0 i 7 [ e ; { a @ : # b - : * a { a / c [ e 6 @ 9 ] 0 g [ . ~ ~ ~ 6 j | 7 ~ d / g 6 ) 6 ( ^ c ; 0 i 7 [ e ; { a @ : # b - : * ",
"  6 ~ e 5 . _ 1 4 ; @ . * { 2 a < % k 4 ' @ + 5 7 ! + d l     > 1 5 # 1 / { % j i + 0 # :   8 8   6 ~ e 5 . _ 1 4 ; @ . * { 2 a "};
