/* XPM */
static char * capyenemy4_xpm[] = {
"64 64 113 2",
"  	c #659F3F",
". 	c #5F983C",
"+ 	c #619A3D",
"@ 	c #639D3E",
"# 	c #5B9139",
"$ 	c #73AF46",
"% 	c #8BC752",
"& 	c #70A844",
"* 	c #79B248",
"= 	c #6BA241",
"- 	c #72AA45",
"; 	c #6DA542",
"> 	c #7EBB4C",
", 	c #74AD46",
"' 	c #6AA542",
") 	c #6FAD45",
"! 	c #6AA843",
"~ 	c #66A240",
"{ 	c #5D953B",
"] 	c #6CAB44",
"^ 	c #7EB74B",
"/ 	c #96D057",
"( 	c #88C551",
"_ 	c #6FAB44",
": 	c #588D37",
"< 	c #689F3F",
"[ 	c #7AB94A",
"} 	c #8FCA54",
"| 	c #82C04E",
"1 	c #81BA4C",
"2 	c #649A3D",
"3 	c #75B147",
"4 	c #83BD4D",
"5 	c #6DA843",
"6 	c #74B448",
"7 	c #68A442",
"8 	c #85C24F",
"9 	c #70AF46",
"0 	c #72B147",
"a 	c #7BB54A",
"b 	c #86BF4F",
"c 	c #91CC55",
"d 	c #88C250",
"e 	c #76B849",
"f 	c #94CE56",
"g 	c #8BC451",
"h 	c #78B549",
"i 	c #76AF47",
"j 	c #9CD65A",
"k 	c #99D358",
"l 	c #8DC953",
"m 	c #7EBD4C",
"n 	c #4D2B32",
"o 	c #AD7757",
"p 	c #7A4841",
"q 	c #8F443E",
"r 	c #A93E38",
"s 	c #BF3732",
"t 	c #B32026",
"u 	c #96252B",
"v 	c #C91B20",
"w 	c #71292F",
"x 	c #C33630",
"y 	c #CB322D",
"z 	c #A42228",
"A 	c #C21D22",
"B 	c #B81F24",
"C 	c #CD1A1F",
"D 	c #88262D",
"E 	c #C31C22",
"F 	c #F10B0E",
"G 	c #DD1519",
"H 	c #C6352F",
"I 	c #D12F2A",
"J 	c #DE2924",
"K 	c #B43B35",
"L 	c #CA332D",
"M 	c #D6171C",
"N 	c #E42521",
"O 	c #D42E29",
"P 	c #341C27",
"Q 	c #651A25",
"R 	c #A52228",
"S 	c #B4131C",
"T 	c #BF111A",
"U 	c #AE141D",
"V 	c #E00A11",
"W 	c #BD121A",
"X 	c #D1302B",
"Y 	c #D92B27",
"Z 	c #C6342F",
"` 	c #C71018",
" .	c #9F161F",
"..	c #8F1721",
"+.	c #DC2A25",
"@.	c #E22622",
"#.	c #84463F",
"$.	c #E52420",
"%.	c #C11D22",
"&.	c #B71F25",
"*.	c #D3181D",
"=.	c #F2100D",
"-.	c #F90404",
";.	c #FB0000",
">.	c #F2110E",
",.	c #F90202",
"'.	c #F50205",
").	c #241527",
"!.	c #F40506",
"~.	c #F1080B",
"{.	c #FA0201",
"].	c #F60E0C",
"^.	c #090A14",
"  .   + @   # $ % & * = - ; # @ @ + > > , = ' ) ! ~   {   { ] ) @ ^ / = ( _ : { ~ < > [ ' # @ {   .   + @   # $ % & * = - ; # @ ",
"^ # { * } $ # | 1 $ < : 2 3 # 4 * + + ; { 5 6 @ : > 5 ~ [ 7   { + { % 8 ) : - , ~ . 9 0 : 7 { ) ^ # { * } $ # | 1 $ < : 2 3 # 4 ",
"} ^ { % a a ~ 4 5 # ~ + ' ] ^ b # : # > b 2 , + 5 c & d , # ! ] + & 5 e @ _ a { # # . 5 2 # > a } ^ { % a a ~ 4 5 # ~ + ' ] ^ b ",
"- f ] 0   # { @ ; = 7 ' 6 7 % . = 1 < . | > ^ _ [ g 0 { h 3 @ | ; / f $ + ) : i [   @ + | 4 | { - f ] 0   # { @ ; = 7 ' 6 7 % . ",
"{ | ] { @   ~ : b i + 9 9 * ; :   d f 1 2 [ > & ~ 2 5 , < ( ) [ : { g g # : 4 j h + 5   { _ +   { | ] { @   ~ : b i + 9 9 * ; : ",
"> ~ ~ d | . [ 5 % ; + . ' c 2 : # # 5 ( $ . + # ^ = { a ) a h 9 9 ! _ _ ~ i k i # 7 h ' # ! { & > ~ ~ d | . [ 5 % ; + . ' c 2 : ",
"> < c l 2 2 & 6 > { d i ^ b # * ! # ~ ~ ~ ~ 7 : ^ f : { + @ ~ + ' + i > { 8 3 @ @   3 - , | % & > < c l 2 2 & 6 > { d i ^ b # * ",
") l g # ~ ' 4 9 ] : - f a ; 1 4 # : # ~ {   8 ) = j   6 # + $ @ : _ # 9 6 9 {   ! ( 8 d % ' i } ) l g # ~ ' 4 9 ] : - f a ; 1 4 ",
"> | # 3 | . - h { # : l 1 ; l @ : + h / b @ 1 } @ / _ + i k % ~ # ~ @ 7 9 '   3 ] $ } 8 !   h 6 > | # 3 | . - h { # : l 1 ; l @ ",
"6 @ ) 3 . { # _ .   : & 1 + ) : : : { a / % e / > ) ~ a j } + 7 @ 8 ^ 7 @ @ 5 / 1 @ | h ; / g # 6 @ ) 3 . { # _ .   : & 1 + ) : ",
"7 ) ] : # 7 : #   + : + . : # 7 > 8 4 * < 3 e l }   3 j % # { . + , c { ~ | > l k 2 ' ) k f + : 7 ) ] : # 7 : #   + : + . : # 7 ",
"{ 7 : 5 e 7 ' ; . # ' = 2 # @ 9 > ( c f 8 ) @ i } ! f l ~ 0 ^ 1 a ' } ^ l m 0 > j * ~ % k < . { { 7 : 5 e 7 ' ; . # ' = 2 # @ 9 ",
"! { 5 ( = { @ d ; : ) = i : : : # & .   0 e e $ | 0 % + 5 l c d $ @ 6 h a 8 m   f a 9 / 3 : { m ! { 5 ( = { @ d ; : ) = i : : : ",
"9   8 & : # : 5 b : ~ = < , : { 1 a : #   ! e 6 6 6 ) ] e 3 + ~   { 9 h 3 % ' 7 h > 6 | ' { { } 9   8 & : # : 5 b : ~ = < , : { ",
"; 0 i 7 [ e ; { a @ : # b - : * a { a / c [ e 6 @ 9 ] 0 g [ . ~ ~ ~ 6 j | 7 ~ d / g 6 ) 6 ( ^ c ; 0 i 7 [ e ; { a @ : # b - : * ",
"  6 ~ e 5 . _ 1 4 ; @ . * { 2 a < % k 4 ' @ + 5 7 ! + d l     > 1 5 # 1 / { % j i + 0 # :   8 8   6 ~ e 5 . _ 1 4 ; @ . * { 2 a ",
"# 5 d / / [ # 5 f k - @ . 5   2 > | < { + + e _ 3 + i f ~ a g 4 l k , 2 } m k = 2 1 / c ~ , $ 0 # 5 d / / [ # 5 f k - @ . 5   2 ",
"+ > | * - ! # : @ % k < 7 @ = f n n n n n n n n [ ~ > * f k % 5 { 4 % ~ 6 | - ^ f } 1 i 9 _ _   + > | * - ! # : @ % k < 7 @ = f ",
"  . : : . < 2 : : . c b 7 . n n n n n n n n n n n n n | f ' : { @ { e ~ 0 ] i g = # ~ ~ # : # ~   . : : . < 2 : : . c b 7 . / g ",
": # @ ) [ 4 d b 3 ~ & d + n n n n n n n n n n n n n n o o o o 8   < 0   ~ + ] b } d , : . @ 9 . : # @ ) [ 4 d b 3 ~ & d + } g ~ ",
"@   ( 5 + : : 2 2 @ 7 n n n n n n p p p n n n n n n n n o o o o o o o o # + ! ^ 8 l k * : ! @ . @   ( 5 + : : 2 2 @ 7 ! h d # 7 ",
"! _ } + . 5 ] 7 ~ : n n n n n n n n q r s t u v u n n n o n o o p o o o o 5   + : + 6 [ # # # ~ ! _ } + . 5 ] 7 ~ : ; 5 ] # ) 3 ",
"  a 8 : d % ! 5 : n n n n w x s s y t u q q r z u A t B w n n p p o p p p o o 5 { { : {   9 > &   a 8 : d % ! 5 : + ^ { +     4 ",
"^ > [ 1 / ~ . > n n n n u v C D q p p p p p p p p n w B t E E p p p p o o o o o o o ~ 7 7   3 f ^ > [ 1 / ~ . > & ) = +   +   + ",
"f ( m / * 4 / 4 n n n B B w t t s r p p n n p p p n n n n F G t n p o o p p o o o o o o o + ~ & f ( m / * 4 / 4 4 _ * 3 a % 4 ~ ",
"= % m > l } ; n n n A u p n A n w r s u n p p p n n n z t v n w t n p p p p p p o o o o o o < # = % m > l } ; : 3 * 4 { @ = 4 c ",
"! 9 6 0 | { # n w t n n n p s q p p q r y s q p p r s r B B n p r u p p p p p o o o o o o o o o ! 9 6 0 | { # {   > 2 : = ^ + ; ",
"e 9 ) 9 _ 1 n n u u n n p p r r p p p p p q H I J r q q t n n n q s p p p p p o o p o o o o o o o 9 ) 9 _ 1 {   { + 7 - ; > + : ",
"  6 ) @ { c n B B n n p p p q t n n p q r t t K L y D t n n n n p q s p p p p o p p o o p o o o o o ) @ { c 1 @ ! + ! 5 4 #   . ",
": . 6 ! : n n t w n n n n n n A r s y s u w p p p p M H u n n p p p s q p p p p p p o p p o o o o o o ! : = k = h 4 3 @ ) @ ) # ",
"@ > 0 # ! n A n n n n n n w u N O q p p p p p p p r r q u A r p n p r r p p p p p p p p p o o p o o o o o ; 4 * d a ^ d @ 9 { ^ ",
"> = ~ & n z v P Q u u A A t r q s p p p p p p p p y p n n n u u n p r r p p p p p p p p o p p p o o o o o o i 3 g # : a h ! 4 d ",
"@ = . i P R S T t u u n n p p p u r p p p n p p x x p p p n n r r p r r p p p p p p p p p p p o o o o o o o o 4 , # : # 9 ) h # ",
"a , = _ U V W u u u u u u r r u K I r q w w q q X w w q u u u u B Y Z q p p p p p p p p p p p p o p p o o o o o + h # : ' 9 { ' ",
"4 + > b Q `  .u ....u u u u u u r I K t t s H +.H s t t u u u u r r @.p p p p p p p p p p p p p p p o o o o p o _ 3 ~ { # 7 { @ ",
"< a / } $ P `  .P P n n n n n n p K I p p r s p p p p p n n n n p q H p p p p p p p p p p p p p p p p o o p p o o 7 { ' { > & a ",
"; f * # @ @ P T P P n P P n n p p p s q r r p p p p p n n n p p #.$.H p p p p p p p p p p p p p p p p p p p o o o : : 7 i , ; g ",
"> & : # # # + P U %.P P n n p p p n r B u p n n p p n n P u r B &.v p p p p p p p p p p p p p p p p p p p p o o p o ; # a 2 - b ",
"' { : . ! $ ] # P S T U B r q p n n n u p p n n p n u U T u u B w n p p p p p p p p p p n p p p p p p p p n n n o p o * ' ^ d   ",
"# . 2 h # #   ' P P P Q B u t t t t u u r r u u *.u u Q P n P n n p p p n p p p p n p p n p p p p p p p p p P P n o o 3 @ / & 2 ",
"# # 4 1 : : # 5 2 P P P n n n w w w u u r u u ..n n P P P P P n n p n n n p n p n n n n n p n p p p p p p p p p p o o o 1 } 2 % ",
"* : d & 2 ^ 3 - < P P P P n n P n n P n n n P P P P P P P P P P n n n n p p p n n n n n n n n p p p p p p =.-.;.p p o o 4 ^ d ^ ",
"j * 9 = b ; 2 - = { P P P n P P n n P P P P P P P P ~ # : P P P P P n n n p n n n n n n n n n p p p p p p >.,.'.p p o / > 1 b { ",
"- f 5 [ ' 2 4 / % & ).).P P P n n P P P 7 + 4 8 ! { < 0   . . ] P P P n n n n n n n n P P n n p n p p p p !.;.;.p o p b c | 2 ~ ",
"# - 6 0 l i # . , i ! ).P P P n P P P + @   . % - , > + # { . @ . 6 P P P n n n n n n n P P P n n n n p p ~.{.].p p o = / _ i l ",
"k ) ) % c . & # : : : ).P P P P P P 8 c c g i ) [ 0 . * l / f > . ) : P P P n n n ).).: : 5 P P n n n p n n p p p p o . $ 5 1 = ",
"% c 9 > . : * ; : < # ).).P P ).).# { @ 5 ^ | 0 ) _ l c d * i , ! { { P ).P P n n ).< 5 * | { P P n n n n n n n n n o : # . 7 # ",
". h 0   : :   i - d { ).).).P ).# : . , > > ) 9 ) h 3 . . ) ~ :   | = 5 ).).P P ).).7 [ %   # . P P P n n n n n n n o . < .   ~ ",
"  .   + @   # $ % & * ).).).P ).@ + > > , = ' ) ! ~   {   { ] ) @ ^ / = ).).P P ).< > [ ' # @ {   P P P P P P P P P P = - ; # @ ",
"^ # { * } $ # | 1 $ < : ).).).).* + + ; { 5 6 @ : > 5 ~ [ 7   { + { % 8 ) ).).).).. 9 0 : 7 { ) ^ P P P P P P P P ^.P : 2 3 # 4 ",
"} ^ { % a a ~ 4 5 # ~ + ).).).).).: # > b 2 , + 5 c & d , # ! ] + & 5 e @ _ ).).).).. 5 2 # > a } ^ P P P P P P P ^.^.+ ' ] ^ b ",
"- f ] 0   # { @ ; = 7 ' 6 ).).).).).< . | > ^ _ [ g 0 { h 3 @ | ; / f $ + ) : ).).).).+ | 4 | { - f ] P P ).P ).).^.^.' 6 7 % . ",
"{ | ] { @   ~ : b i + 9 9 * ).).).).f 1 2 [ > & ~ 2 5 , < ( ) [ : { g g # : 4 j ).).).  { _ +   { | ] P P ).).).P i + 9 9 * ; : ",
"> ~ ~ d | . [ 5 % ; + . ' c 2 : # # 5 ( $ . + # ^ = { a ) a h 9 9 ! _ _ ~ i k i # 7 h ' # ! { & > ~ ~ d P P P P % ; + . ' c 2 : ",
"> < c l 2 2 & 6 > { d i ^ b # * ! # ~ ~ ~ ~ 7 : ^ f : { + @ ~ + ' + i > { 8 3 @ @   3 - , | % & > < c l 2 2 & 6 > { d i ^ b # * ",
") l g # ~ ' 4 9 ] : - f a ; 1 4 # : # ~ {   8 ) = j   6 # + $ @ : _ # 9 6 9 {   ! ( 8 d % ' i } ) l g # ~ ' 4 9 ] : - f a ; 1 4 ",
"> | # 3 | . - h { # : l 1 ; l @ : + h / b @ 1 } @ / _ + i k % ~ # ~ @ 7 9 '   3 ] $ } 8 !   h 6 > | # 3 | . - h { # : l 1 ; l @ ",
"6 @ ) 3 . { # _ .   : & 1 + ) : : : { a / % e / > ) ~ a j } + 7 @ 8 ^ 7 @ @ 5 / 1 @ | h ; / g # 6 @ ) 3 . { # _ .   : & 1 + ) : ",
"7 ) ] : # 7 : #   + : + . : # 7 > 8 4 * < 3 e l }   3 j % # { . + , c { ~ | > l k 2 ' ) k f + : 7 ) ] : # 7 : #   + : + . : # 7 ",
"{ 7 : 5 e 7 ' ; . # ' = 2 # @ 9 > ( c f 8 ) @ i } ! f l ~ 0 ^ 1 a ' } ^ l m 0 > j * ~ % k < . { { 7 : 5 e 7 ' ; . # ' = 2 # @ 9 ",
"! { 5 ( = { @ d ; : ) = i : : : # & .   0 e e $ | 0 % + 5 l c d $ @ 6 h a 8 m   f a 9 / 3 : { m ! { 5 ( = { @ d ; : ) = i : : : ",
"9   8 & : # : 5 b : ~ = < , : { 1 a : #   ! e 6 6 6 ) ] e 3 + ~   { 9 h 3 % ' 7 h > 6 | ' { { } 9   8 & : # : 5 b : ~ = < , : { ",
"; 0 i 7 [ e ; { a @ : # b - : * a { a / c [ e 6 @ 9 ] 0 g [ . ~ ~ ~ 6 j | 7 ~ d / g 6 ) 6 ( ^ c ; 0 i 7 [ e ; { a @ : # b - : * ",
"  6 ~ e 5 . _ 1 4 ; @ . * { 2 a < % k 4 ' @ + 5 7 ! + d l     > 1 5 # 1 / { % j i + 0 # :   8 8   6 ~ e 5 . _ 1 4 ; @ . * { 2 a "};
