/* XPM */
static char * capyenemy2_xpm[] = {
"64 64 115 2",
"  	c #659F3F",
". 	c #5F983C",
"+ 	c #619A3D",
"@ 	c #639D3E",
"# 	c #5B9139",
"$ 	c #73AF46",
"% 	c #8BC752",
"& 	c #70A844",
"* 	c #79B248",
"= 	c #6BA241",
"- 	c #72AA45",
"; 	c #6DA542",
"> 	c #7EBB4C",
", 	c #74AD46",
"' 	c #6AA542",
") 	c #6FAD45",
"! 	c #6AA843",
"~ 	c #66A240",
"{ 	c #5D953B",
"] 	c #6CAB44",
"^ 	c #7EB74B",
"/ 	c #96D057",
"( 	c #88C551",
"_ 	c #6FAB44",
": 	c #588D37",
"< 	c #689F3F",
"[ 	c #7AB94A",
"} 	c #8FCA54",
"| 	c #82C04E",
"1 	c #81BA4C",
"2 	c #649A3D",
"3 	c #75B147",
"4 	c #83BD4D",
"5 	c #6DA843",
"6 	c #74B448",
"7 	c #68A442",
"8 	c #85C24F",
"9 	c #70AF46",
"0 	c #72B147",
"a 	c #7BB54A",
"b 	c #86BF4F",
"c 	c #91CC55",
"d 	c #88C250",
"e 	c #76B849",
"f 	c #94CE56",
"g 	c #8BC451",
"h 	c #78B549",
"i 	c #76AF47",
"j 	c #9CD65A",
"k 	c #99D358",
"l 	c #8DC953",
"m 	c #7EBD4C",
"n 	c #4D2B32",
"o 	c #AD7757",
"p 	c #7A4841",
"q 	c #71292F",
"r 	c #96252B",
"s 	c #B32026",
"t 	c #C91B20",
"u 	c #B81F24",
"v 	c #BF3732",
"w 	c #CB322D",
"x 	c #A42228",
"y 	c #DB553E",
"z 	c #D65B41",
"A 	c #B77153",
"B 	c #A93E38",
"C 	c #D12F2A",
"D 	c #D52E29",
"E 	c #88262D",
"F 	c #CC322D",
"G 	c #DC553D",
"H 	c #8F443E",
"I 	c #F31714",
"J 	c #E22622",
"K 	c #C21D22",
"L 	c #D35D43",
"M 	c #C6352F",
"N 	c #DE2924",
"O 	c #341C27",
"P 	c #B43B35",
"Q 	c #CA332D",
"R 	c #D6171C",
"S 	c #BB1E24",
"T 	c #E42521",
"U 	c #D42E29",
"V 	c #F6110F",
"W 	c #F90A0A",
"X 	c #FA0807",
"Y 	c #F6120F",
"Z 	c #FD0102",
"` 	c #FD0202",
" .	c #FE0101",
"..	c #9F161F",
"+.	c #F80E0C",
"@.	c #FC0908",
"#.	c #FC0808",
"$.	c #FC0504",
"%.	c #090A14",
"&.	c #AE141D",
"*.	c #E11317",
"=.	c #C11D22",
"-.	c #D1302B",
";.	c #C33630",
">.	c #D92B27",
",.	c #C6342F",
"'.	c #A52228",
").	c #241527",
"!.	c #C71018",
"~.	c #84463F",
"{.	c #E52420",
"].	c #BD121A",
"^.	c #C23630",
"/.	c #D10E15",
"(.	c #8F1721",
"  .   + @   # $ % & * = - ; # @ @ + > > , = ' ) ! ~   {   { ] ) @ ^ / = ( _ : { ~ < > [ ' # @ {   .   + @   # $ % & * = - ; # @ ",
"^ # { * } $ # | 1 $ < : 2 3 # 4 * + + ; { 5 6 @ : > 5 ~ [ 7   { + { % 8 ) : - , ~ . 9 0 : 7 { ) ^ # { * } $ # | 1 $ < : 2 3 # 4 ",
"} ^ { % a a ~ 4 5 # ~ + ' ] ^ b # : # > b 2 , + 5 c & d , # ! ] + & 5 e @ _ a { # # . 5 2 # > a } ^ { % a a ~ 4 5 # ~ + ' ] ^ b ",
"- f ] 0   # { @ ; = 7 ' 6 7 % . = 1 < . | > ^ _ [ g 0 { h 3 @ | ; / f $ + ) : i [   @ + | 4 | { - f ] 0   # { @ ; = 7 ' 6 7 % . ",
"{ | ] { @   ~ : b i + 9 9 * ; :   d f 1 2 [ > & ~ 2 5 , < ( ) [ : { g g # : 4 j h + 5   { _ +   { | ] { @   ~ : b i + 9 9 * ; : ",
"> ~ ~ d | . [ 5 % ; + . ' c 2 : # # 5 ( $ . + # ^ = { a ) a h 9 9 ! _ _ ~ i k i # 7 h ' # ! { & > ~ ~ d | . [ 5 % ; + . ' c 2 : ",
"> < c l 2 2 & 6 > { d i ^ b # * ! # ~ ~ ~ ~ 7 : ^ f : { + @ ~ + ' + i > { 8 3 @ @   3 - , | % & > < c l 2 2 & 6 > { d i ^ b # * ",
") l g # ~ ' 4 9 ] : - f a ; 1 4 # : # ~ {   8 ) = j   6 # + $ @ : _ # 9 6 9 {   ! ( 8 d % ' i } ) l g # ~ ' 4 9 ] : - f a ; 1 4 ",
"> | # 3 | . - h { # : l 1 ; l @ : + h / b @ 1 } @ / _ + i k % ~ # ~ @ 7 9 '   3 ] $ } 8 !   h 6 > | # 3 | . - h { # : l 1 ; l @ ",
"6 @ ) 3 . { # _ .   : & 1 + ) : : : { a / % e / > ) ~ a j } + 7 @ 8 ^ 7 @ @ 5 / 1 @ | h ; / g # 6 @ ) 3 . { # _ .   : & 1 + ) : ",
"7 ) ] : # 7 : #   + : + . : # 7 > 8 4 * < 3 e l }   3 j % # { . + , c { ~ | > l k 2 ' ) k f + : 7 ) ] : # 7 : #   + : + . : # 7 ",
"{ 7 : 5 e 7 ' ; . # ' = 2 # @ 9 > ( c f 8 ) @ i } ! f l ~ 0 ^ 1 a ' } ^ l m 0 > j * ~ % k < . { { 7 : 5 e 7 ' ; . # ' = 2 # @ 9 ",
"! { 5 ( = { @ d ; : ) = i : : : # & .   0 e e $ | 0 % + 5 l c d $ @ 6 h a 8 m   f a 9 / 3 : { m ! { 5 ( = { @ d ; : ) = i : : : ",
"9   8 & : # : 5 b : ~ = < , : { 1 a : #   ! e 6 6 6 ) ] e 3 + ~   { 9 h 3 % ' 7 h > 6 | ' { { } 9   8 & : # : 5 b : ~ = < , : { ",
"; 0 i 7 [ e ; { a @ : # b - : * a { a / c [ e 6 @ 9 ] 0 g [ . ~ ~ ~ 6 j | 7 ~ d / g 6 ) 6 ( ^ c ; 0 i 7 [ e ; { a @ : # b - : * ",
"  6 ~ e 5 . _ 1 4 ; @ . * { 2 a < % k 4 ' @ + 5 7 ! + d l     > 1 5 # 1 / { % j i + 0 # :   8 8   6 ~ e 5 . _ 1 4 ; @ . * { 2 a ",
"# 5 d / / [ # 5 f k - @ . 5   2 > | < { + + e _ 3 + i f ~ a g 4 l k , 2 } m k = 2 1 / c ~ , $ 0 # 5 d / / [ # 5 f k - @ . 5   2 ",
"+ > | * - ! # : @ % k < 7 @ = f l { 2 & , * + : [ ~ > * f k % 5 { 4 % ~ 6 | - ^ f } 1 i 9 _ _   + > | * - ! # : @ % k < 7 @ = f ",
"  . : : . < 2 : : . c b 7 n n n n n n n n / | 7 ! 9 9 | f ' : { @ { e ~ 0 ] i g = # ~ ~ # : # ~   . : : . < 2 : : . c b 7 . / g ",
": # @ ) [ 4 d b 3 ~ & n n n n n n n n n n n n n o ] 0 ( ) 0 8 8   < 0   ~ + ] b } d , : . @ 9 . : # @ ) [ 4 d b 3 ~ & d + } g ~ ",
"@   ( 5 + : : 2 2 @ n n n n n n n n n n n n n n o o o o 0 b 1 & > | 6 9 # + ! ^ 8 l k * : ! @ . @   ( 5 + : : 2 2 @ 7 ! h d # 7 ",
"! _ } + . 5 ] 7 n n n n n n p p p n q r s s r t r o o o o o o o o + + @ = 5   + : + 6 [ # # # ~ ! _ } + . 5 ] 7 ~ : ; 5 ] # ) 3 ",
"  a 8 : d % ! n n n n n n q u v v w s r q q r x r y s z A p o o o o o o 6 i l 5 { { : {   9 > &   a 8 : d % ! 5 : + ^ { +     4 ",
"^ > [ 1 / ~ n n n n n p B C D E q p p p n n n n n n q u v F G p p p o o o o 3 ' m > ~ 7 7   3 f ^ > [ 1 / ~ . > & ) = +   +   + ",
"f ( m / * n n n n n n u u H v v v B p p p p n n n n n n p I J v o o o o o o o o % = : ~ # + ~ & f ( m / * 4 / 4 4 _ * 3 a % 4 ~ ",
"= % m > l n n n n n K r n p w p H r s B p p n n n n n x s t p A L p p o o o o o o # ) > 4 o o o = % m > l } ; : 3 * 4 { @ = 4 c ",
"! 9 6 0 n n n n q v n n n n v H n n H B w s q n n r s r u u n p B B p p p o o o o o e o o o p o o p o o o o # {   > 2 : = ^ + ; ",
"e 9 ) 9 n n n n r r p p p p B B p p p p p H M C N r q q v p n p H v p p o o o o o o o o o o o o O p p p p o o   { + 7 - ; > + : ",
"  6 ) n n n n u u p p p p p H v p p p H B v v P Q K E s n p p p p H v p o o p o o o o o o o o n O o p p p p o o o + ! 5 4 #   . ",
": . 6 n n n n s H p p p n n n w B v K s B H p n n n R S r p p p p p v H o p p o o o o o o o o n O O p p p p p o o o 3 @ ) @ ) # ",
"@ > n n n n K n n n n n n H B T U q n p p p p n p r r q B w B p p p B B p p p o o o o o o o o o n n p V W X Y p p o o d @ 9 { ^ ",
"> = n n n x t n q r r K w v B H v p p p p p p p p K n p p n B B p p B B p p p p o o o o p o o p p p p Z `  .` p n n O O n ! 4 d ",
"@ n n n O ..u K s r r p p p p p B B p p p p p p u u n n n n p B B p B B p p p p o p p p p o o p p p p +.@.#.$.n n n O %.%.%.h # ",
"a O n O &.*.=.r r r B B B r B B P C r H H H H H -.H q q B B B B ;.>.,.H p p p p o o p p p o o p p p p p p n n n n O O O %.O { ' ",
"4 O O O q t '.r r r B B r B B B B t x v v v S R M s s s r r B B B B J p p p p p p p p p p p p p p p p p p n n n O O O O ).O { @ ",
"< O O O n O !.x n n n n n p p p n x C p p B v n n n n n n p p p p H M p p p p p p p p p p p p p p p p n p p n n O O O O ).O & a ",
"; f O O O O O K n n n n n p p p p p v H B B p p p n n n n p p p ~.{.M p p p p p p p p p p p p p p p p n n p n n O O O ).).O ; g ",
"> & : O O O O n &.].n n p p p p p p B ;.B p p p n n n p p B B ;.^.-.p p p p p p p p p p p p p n n p n n n n O O O O ).).O 2 - b ",
"' { : . O O n O O u K v ;.B q p n n p r n p p n n O r v K r r ;.H p p p p p p p p p p p p p p p n n n O O O O O O O O O ' ^ d   ",
"# . 2 h # O O O O n p H ;.r s s s v B r r B r r /.(.r q n n n p p p p p p p p p p n p p n p n n O O O O O #   O O O O 3 @ / & 2 ",
"# # 4 1 : O O O O n n n n n n q q H B r r r r r O O n O n n p p p n p p p p n p p n n p n n n O O # 4 1 : : # 5 2   _ @ 1 } 2 % ",
"* : d & 2 ^ O O O n n n n n n n n p n n O n n O O O O O n n p n n n p p p p n n p p n n n n n O * : d & 2 ^ 3 - < : 4 4 4 ^ d ^ ",
"j * 9 = b ; O O O O n n O n n O n n n O O O O O O O O O O n n n n p p p p p p n p p n n n 7 + * j * 9 = b ; 2 - = { 2 / > 1 b { ",
"- f 5 [ ' 2 4 O O O n O O n n O O O O O O O O 8 ! { O O O O O n n n p n n p n n n n n n ]   . : - f 5 [ ' 2 4 / % & : b c | 2 ~ ",
"# - 6 0 l i # ).).O O O n n O O O , < + @   . % - , > + # O O O n n n n n p n n n n c - + ( f ^ # - 6 0 l i # . , i ! = / _ i l ",
"k ) ) % c . & # ).O O O n O O O { ) 8 c c g i ) [ 0 . * l / f O O O n n n n n n n - # : : 5 8 k k ) ) % c . & # : : : . $ 5 1 = ",
"% c 9 > . : * ; ).O O O O O O # @ # { @ 5 ^ | 0 ) _ l c d * i , O O O n n n ).).# # < 5 * | { @ % c 9 > . : * ; : < # : # . 7 # ",
". h 0   : :   i ).).O O ).).  ~ # : . , > > ) 9 ) h 3 . . ) ~ : O ).O O n n ).~ { 0 7 [ %   # . . h 0   : :   i - d { . < .   ~ ",
"  .   + @   # $ ).).).O ).; # @ @ + > > , = ' ) ! ~   {   { ] ) @ ).).O O ).).{ ~ < > [ ' # @ {   .   + @   # $ % & * = - ; # @ ",
"^ # { * } $ # | ).).).O ).3 # 4 * + + ; { 5 6 @ : > 5 ~ [ 7   { + ).).O O ).- , ~ . 9 0 : 7 { ) ^ # { * } $ # | 1 $ < : 2 3 # 4 ",
"} ^ { % a a ~ 4 5 ).).).).] ^ b # : # > b 2 , + 5 c & d , # ! ] + & ).).).).a { # # . 5 2 # > a } ^ { % a a ~ 4 5 # ~ + ' ] ^ b ",
"- f ] 0   # { @ ; ).).).).).% . = 1 < . | > ^ _ [ g 0 { h 3 @ | ; / f ).).).).i [   @ + | 4 | { - f ] 0   # { @ ; = 7 ' 6 7 % . ",
"{ | ] { @   ~ : b i ).).).).).:   d f 1 2 [ > & ~ 2 5 , < ( ) [ : { g g ).).).).h + 5   { _ +   { | ] { @   ~ : b i + 9 9 * ; : ",
"> ~ ~ d | . [ 5 % ; + ).).).).: # # 5 ( $ . + # ^ = { a ) a h 9 9 ! _ _ ~ ).).).# 7 h ' # ! { & > ~ ~ d | . [ 5 % ; + . ' c 2 : ",
"> < c l 2 2 & 6 > { d i ^ b # * ! # ~ ~ ~ ~ 7 : ^ f : { + @ ~ + ' + i > { 8 3 @ @   3 - , | % & > < c l 2 2 & 6 > { d i ^ b # * ",
") l g # ~ ' 4 9 ] : - f a ; 1 4 # : # ~ {   8 ) = j   6 # + $ @ : _ # 9 6 9 {   ! ( 8 d % ' i } ) l g # ~ ' 4 9 ] : - f a ; 1 4 ",
"> | # 3 | . - h { # : l 1 ; l @ : + h / b @ 1 } @ / _ + i k % ~ # ~ @ 7 9 '   3 ] $ } 8 !   h 6 > | # 3 | . - h { # : l 1 ; l @ ",
"6 @ ) 3 . { # _ .   : & 1 + ) : : : { a / % e / > ) ~ a j } + 7 @ 8 ^ 7 @ @ 5 / 1 @ | h ; / g # 6 @ ) 3 . { # _ .   : & 1 + ) : ",
"7 ) ] : # 7 : #   + : + . : # 7 > 8 4 * < 3 e l }   3 j % # { . + , c { ~ | > l k 2 ' ) k f + : 7 ) ] : # 7 : #   + : + . : # 7 ",
"{ 7 : 5 e 7 ' ; . # ' = 2 # @ 9 > ( c f 8 ) @ i } ! f l ~ 0 ^ 1 a ' } ^ l m 0 > j * ~ % k < . { { 7 : 5 e 7 ' ; . # ' = 2 # @ 9 ",
"! { 5 ( = { @ d ; : ) = i : : : # & .   0 e e $ | 0 % + 5 l c d $ @ 6 h a 8 m   f a 9 / 3 : { m ! { 5 ( = { @ d ; : ) = i : : : ",
"9   8 & : # : 5 b : ~ = < , : { 1 a : #   ! e 6 6 6 ) ] e 3 + ~   { 9 h 3 % ' 7 h > 6 | ' { { } 9   8 & : # : 5 b : ~ = < , : { ",
"; 0 i 7 [ e ; { a @ : # b - : * a { a / c [ e 6 @ 9 ] 0 g [ . ~ ~ ~ 6 j | 7 ~ d / g 6 ) 6 ( ^ c ; 0 i 7 [ e ; { a @ : # b - : * ",
"  6 ~ e 5 . _ 1 4 ; @ . * { 2 a < % k 4 ' @ + 5 7 ! + d l     > 1 5 # 1 / { % j i + 0 # :   8 8   6 ~ e 5 . _ 1 4 ; @ . * { 2 a "};
