/* XPM */
static char * playerup_xpm[] = {
"64 64 665 2",
"  	c #659F3F",
". 	c #5F983C",
"+ 	c #619A3D",
"@ 	c #639D3E",
"# 	c #5B9139",
"$ 	c #73AF46",
"% 	c #8BC752",
"& 	c #70A844",
"* 	c #79B248",
"= 	c #6BA241",
"- 	c #72AA45",
"; 	c #6DA542",
"> 	c #7EBB4C",
", 	c #74AD46",
"' 	c #6AA542",
") 	c #6FAD45",
"! 	c #6AA843",
"~ 	c #66A240",
"{ 	c #5D953B",
"] 	c #6CAB44",
"^ 	c #7EB74B",
"/ 	c #96D057",
"( 	c #88C551",
"_ 	c #6FAB44",
": 	c #588D37",
"< 	c #689F3F",
"[ 	c #7AB94A",
"} 	c #8FCA54",
"| 	c #82C04E",
"1 	c #81BA4C",
"2 	c #649A3D",
"3 	c #75B147",
"4 	c #83BD4D",
"5 	c #6DA843",
"6 	c #74B448",
"7 	c #7BB64A",
"8 	c #62983C",
"9 	c #596238",
"0 	c #584838",
"a 	c #463A2C",
"b 	c #594938",
"c 	c #75614B",
"d 	c #74604B",
"e 	c #6D8244",
"f 	c #4F7F31",
"g 	c #72A945",
"h 	c #70AF46",
"i 	c #72B147",
"j 	c #68A442",
"k 	c #7BB54A",
"l 	c #86BF4F",
"m 	c #578735",
"n 	c #739046",
"o 	c #7D6852",
"p 	c #BE9F7D",
"q 	c #D3B08B",
"r 	c #B19475",
"s 	c #B99A7A",
"t 	c #E2BD95",
"u 	c #F0C99F",
"v 	c #D0AE89",
"w 	c #A68A6C",
"x 	c #628B3A",
"y 	c #508232",
"z 	c #94CE56",
"A 	c #5A8C36",
"B 	c #8C7A5B",
"C 	c #AB8F71",
"D 	c #D7B48E",
"E 	c #E7C199",
"F 	c #EBC49B",
"G 	c #EDC69D",
"H 	c #DDB992",
"I 	c #E3BE96",
"J 	c #EFC89E",
"K 	c #EEC79D",
"L 	c #ECC69C",
"M 	c #BFA07E",
"N 	c #7A754F",
"O 	c #6BA441",
"P 	c #76AF47",
"Q 	c #88C250",
"R 	c #689B3E",
"S 	c #8C785B",
"T 	c #DCB892",
"U 	c #E8C299",
"V 	c #E9C39A",
"W 	c #E8C29A",
"X 	c #EAC39B",
"Y 	c #DEBA93",
"Z 	c #D4B18C",
"` 	c #766A4C",
" .	c #5C923A",
"..	c #91CC55",
"+.	c #5D963B",
"@.	c #5B743A",
"#.	c #C0A07E",
"$.	c #ECC59C",
"%.	c #DAB690",
"&.	c #CCAA87",
"*.	c #D6B38E",
"=.	c #CFAD89",
"-.	c #CEAC88",
";.	c #DAB691",
">.	c #E5BF98",
",.	c #D5B28D",
"'.	c #D0AE8A",
").	c #E0BC94",
"!.	c #E6C098",
"~.	c #AD9071",
"{.	c #5B8939",
"].	c #78B549",
"^.	c #8DC953",
"/.	c #60993C",
"(.	c #76624C",
"_.	c #E0BB94",
":.	c #D1AE8A",
"<.	c #C4A482",
"[.	c #CAA986",
"}.	c #BD9E7D",
"|.	c #CDAB88",
"1.	c #D8B48F",
"2.	c #C5A482",
"3.	c #CDAC88",
"4.	c #DFBA93",
"5.	c #DFBB94",
"6.	c #534D34",
"7.	c #8BC451",
"8.	c #415E28",
"9.	c #A1866A",
"0.	c #DCB891",
"a.	c #C6A583",
"b.	c #CCAB87",
"c.	c #BE9F7E",
"d.	c #B79979",
"e.	c #BB9D7C",
"f.	c #C6A683",
"g.	c #CAA985",
"h.	c #D7B38E",
"i.	c #E1BC95",
"j.	c #A78C6E",
"k.	c #619038",
"l.	c #46442C",
"m.	c #C2A380",
"n.	c #C5A582",
"o.	c #B89A7A",
"p.	c #B89A79",
"q.	c #C7A784",
"r.	c #54792F",
"s.	c #85C24F",
"t.	c #83B74C",
"u.	c #817154",
"v.	c #C0A07F",
"w.	c #D0AD89",
"x.	c #888657",
"y.	c #6EA642",
"z.	c #3C5E22",
"A.	c #998065",
"B.	c #AC9072",
"C.	c #AD9072",
"D.	c #528232",
"E.	c #99D358",
"F.	c #76B849",
"G.	c #84BB4D",
"H.	c #719E40",
"I.	c #4E732C",
"J.	c #806B54",
"K.	c #A58A6D",
"L.	c #A3896C",
"M.	c #B69879",
"N.	c #B59778",
"O.	c #75624D",
"P.	c #68963C",
"Q.	c #98D257",
"R.	c #548835",
"S.	c #32281E",
"T.	c #6A5A46",
"U.	c #BC9D7C",
"V.	c #A88C6F",
"W.	c #927A61",
"X.	c #C1A17F",
"Y.	c #B99B7A",
"Z.	c #A58A6C",
"`.	c #7E994C",
" +	c #32501C",
".+	c #7EBD4C",
"++	c #538533",
"@+	c #5B623B",
"#+	c #635240",
"$+	c #675643",
"%+	c #BA9B7B",
"&+	c #927A60",
"*+	c #937B61",
"=+	c #BB9C7B",
"-+	c #504132",
";+	c #8AC050",
">+	c #78A945",
",+	c #514C32",
"'+	c #CDAB87",
")+	c #C7A683",
"!+	c #A08669",
"~+	c #715D49",
"{+	c #836D55",
"]+	c #6C8E44",
"^+	c #55782F",
"/+	c #7FB84B",
"(+	c #506F31",
"_+	c #C3A481",
":+	c #B69878",
"<+	c #B39576",
"[+	c #977E64",
"}+	c #8D765D",
"|+	c #5F553D",
"1+	c #568A36",
"2+	c #578B36",
"3+	c #33511C",
"4+	c #31271D",
"5+	c #A0866A",
"6+	c #8B745C",
"7+	c #CCAA86",
"8+	c #B09374",
"9+	c #B49777",
"0+	c #AF9274",
"a+	c #A68A6E",
"b+	c #A1876A",
"c+	c #A2876B",
"d+	c #AE9173",
"e+	c #C8A784",
"f+	c #7D844E",
"g+	c #7AAD47",
"h+	c #558935",
"i+	c #5F923A",
"j+	c #566835",
"k+	c #8A735B",
"l+	c #977F64",
"m+	c #88725A",
"n+	c #7A6650",
"o+	c #625140",
"p+	c #9F8469",
"q+	c #AE9273",
"r+	c #9B8166",
"s+	c #A68B6E",
"t+	c #A1876B",
"u+	c #C3A381",
"v+	c #A68B6D",
"w+	c #887159",
"x+	c #A78C6F",
"y+	c #3B3125",
"z+	c #48732B",
"A+	c #8BC251",
"B+	c #5A7235",
"C+	c #3E3327",
"D+	c #507432",
"E+	c #2E401B",
"F+	c #89725A",
"G+	c #72604B",
"H+	c #5C4C3B",
"I+	c #6F5C49",
"J+	c #4D6F30",
"K+	c #629B3D",
"L+	c #639C3E",
"M+	c #6EAC45",
"N+	c #71B045",
"O+	c #4B552F",
"P+	c #BA9B7A",
"Q+	c #A0856A",
"R+	c #B29576",
"S+	c #715E4A",
"T+	c #B59777",
"U+	c #796550",
"V+	c #685440",
"W+	c #9F8468",
"X+	c #987F65",
"Y+	c #B49677",
"Z+	c #9C8267",
"`+	c #8E775E",
" @	c #B09873",
".@	c #425725",
"+@	c #3C5221",
"@@	c #4E742E",
"#@	c #578C36",
"$@	c #699F3F",
"%@	c #538333",
"&@	c #2E4D1B",
"*@	c #76624E",
"=@	c #7E6953",
"-@	c #725F4A",
";@	c #706F48",
">@	c #A3886C",
",@	c #675543",
"'@	c #A78462",
")@	c #9D7D5C",
"!@	c #9D8367",
"~@	c #AD9172",
"{@	c #7A6651",
"]@	c #576C35",
"^@	c #6A9C3E",
"/@	c #73A543",
"(@	c #3F6526",
"_@	c #000000",
":@	c #4D4031",
"<@	c #544536",
"[@	c #9D7D5D",
"}@	c #C99F76",
"|@	c #7D7350",
"1@	c #7F6A53",
"2@	c #867058",
"3@	c #564738",
"4@	c #796149",
"5@	c #C49B74",
"6@	c #D5A97E",
"7@	c #9D7D5E",
"8@	c #685744",
"9@	c #4F4233",
"0@	c #403528",
"a@	c #48742C",
"b@	c #538534",
"c@	c #6E8040",
"d@	c #795F45",
"e@	c #36291D",
"f@	c #46382A",
"g@	c #C69D75",
"h@	c #CCA279",
"i@	c #E9B98B",
"j@	c #F6C392",
"k@	c #F4C291",
"l@	c #AC8864",
"m@	c #5A8735",
"n@	c #80B64B",
"o@	c #558835",
"p@	c #5C943A",
"q@	c #6AA441",
"r@	c #649D3E",
"s@	c #528433",
"t@	c #363736",
"u@	c #454646",
"v@	c #DEB083",
"w@	c #FDC996",
"x@	c #FCC896",
"y@	c #FECA97",
"z@	c #FDC997",
"A@	c #BC956E",
"B@	c #555655",
"C@	c #2E451E",
"D@	c #5E933A",
"E@	c #6FA842",
"F@	c #70A743",
"G@	c #7FBB4C",
"H@	c #4F6E2D",
"I@	c #3A2F1E",
"J@	c #3D3120",
"K@	c #6E6E6E",
"L@	c #B3B3B3",
"M@	c #B89A80",
"N@	c #C09870",
"O@	c #C09871",
"P@	c #C19971",
"Q@	c #B29D8C",
"R@	c #BABABA",
"S@	c #302E2C",
"T@	c #3E3221",
"U@	c #3E3220",
"V@	c #37321D",
"W@	c #49772D",
"X@	c #446627",
"Y@	c #4E3F2A",
"Z@	c #635036",
"`@	c #655237",
" #	c #61574C",
".#	c #ABABAC",
"+#	c #C4C4C4",
"@#	c #C1C1C1",
"##	c #181818",
"$#	c #CFCFCF",
"%#	c #C8C8C8",
"&#	c #979797",
"*#	c #5B4B35",
"=#	c #655238",
"-#	c #5F4D34",
";#	c #3F4923",
">#	c #6B9F3F",
",#	c #70AE46",
"'#	c #406426",
")#	c #4F412B",
"!#	c #685439",
"~#	c #69553A",
"{#	c #6A563A",
"]#	c #695539",
"^#	c #574B3C",
"/#	c #4F4D4B",
"(#	c #DBDBDB",
"_#	c #DEDEDE",
":#	c #EBEBEB",
"<#	c #D8D8D8",
"[#	c #C7C7C7",
"}#	c #4A4846",
"|#	c #5D4E3A",
"1#	c #675439",
"2#	c #604E35",
"3#	c #3D3D21",
"4#	c #71A843",
"5#	c #4B792E",
"6#	c #403322",
"7#	c #3A2C15",
"8#	c #382912",
"9#	c #37280F",
"0#	c #382A13",
"a#	c #493922",
"b#	c #6B563A",
"c#	c #5D4B33",
"d#	c #231B10",
"e#	c #446F2A",
"f#	c #406927",
"g#	c #47732C",
"h#	c #685539",
"i#	c #665238",
"j#	c #645137",
"k#	c #614F35",
"l#	c #49762C",
"m#	c #312619",
"n#	c #51412B",
"o#	c #3E3120",
"p#	c #413423",
"q#	c #21190F",
"r#	c #53432C",
"s#	c #483A26",
"t#	c #19130A",
"u#	c #696969",
"v#	c #ABABAB",
"w#	c #878787",
"x#	c #3B2F1F",
"y#	c #675338",
"z#	c #564630",
"A#	c #353330",
"B#	c #AFAFAF",
"C#	c #989898",
"D#	c #3D3D3D",
"E#	c #537E31",
"F#	c #868686",
"G#	c #5A4931",
"H#	c #54442E",
"I#	c #42403E",
"J#	c #DDDDDD",
"K#	c #C0C0C0",
"L#	c #4F4F4F",
"M#	c #65943B",
"N#	c #517C30",
"O#	c #D9D9D9",
"P#	c #B0B0B0",
"Q#	c #4D7B30",
"R#	c #B1B1B1",
"S#	c #9CD65A",
"T#	c #46722B",
"U#	c #CDCDCD",
"V#	c #A7A7A7",
"W#	c #3E3C3A",
"X#	c #D0D0D0",
"Y#	c #B9B9B9",
"Z#	c #548533",
"`#	c #545556",
" $	c #777879",
".$	c #5F6061",
"+$	c #50412C",
"@$	c #624F36",
"#$	c #5C4B33",
"$$	c #21201F",
"%$	c #787A7A",
"&$	c #6F7071",
"*$	c #2F3031",
"=$	c #C69C74",
"-$	c #EDBB8C",
";$	c #BF966F",
">$	c #241F14",
",$	c #2C2618",
"'$	c #2C2518",
")$	c #2A2418",
"!$	c #16130B",
"~$	c #423223",
"{$	c #EFBD8D",
"]$	c #785E44",
"^$	c #6C9A3E",
"/$	c #B48E6A",
"($	c #FBC694",
"_$	c #C59B73",
":$	c #878361",
"<$	c #989A6C",
"[$	c #96976B",
"}$	c #9A9D6D",
"|$	c #9B9E6D",
"1$	c #9A9E6D",
"2$	c #989B6C",
"3$	c #97996C",
"4$	c #96966B",
"5$	c #97986B",
"6$	c #999C6C",
"7$	c #97966B",
"8$	c #8E8965",
"9$	c #57543D",
"0$	c #443424",
"a$	c #F9C594",
"b$	c #FAC694",
"c$	c #7C6147",
"d$	c #8A7B51",
"e$	c #E6B688",
"f$	c #AC8865",
"g$	c #9E9970",
"h$	c #BDC784",
"i$	c #C3D187",
"j$	c #C4D288",
"k$	c #C2CE87",
"l$	c #BFC985",
"m$	c #BEC885",
"n$	c #BEC785",
"o$	c #BCC684",
"p$	c #B9C083",
"q$	c #BDC885",
"r$	c #B9BE82",
"s$	c #BBC484",
"t$	c #BCC683",
"u$	c #9D9770",
"v$	c #3A2C1E",
"w$	c #DFB084",
"x$	c #C89E76",
"y$	c #6C7F3E",
"z$	c #71A944",
"A$	c #8C7251",
"B$	c #CDA279",
"C$	c #7A5F45",
"D$	c #BECA85",
"E$	c #BAC183",
"F$	c #BBC384",
"G$	c #C1CD86",
"H$	c #BCC484",
"I$	c #C2CF87",
"J$	c #B9C182",
"K$	c #55523C",
"L$	c #B08A67",
"M$	c #C19871",
"N$	c #728543",
"O$	c #87C14F",
"P$	c #64963D",
"Q$	c #454726",
"R$	c #292C14",
"S$	c #B9C282",
"T$	c #B5BF7F",
"U$	c #B3BA7E",
"V$	c #BBC583",
"W$	c #C3CF87",
"X$	c #B6BA81",
"Y$	c #57533D",
"Z$	c #414223",
"`$	c #5D7D36",
" %	c #78B649",
".%	c #416927",
"+%	c #A39E74",
"@%	c #C0CC86",
"#%	c #BFCB85",
"$%	c #BBC084",
"%%	c #A8A877",
"&%	c #636147",
"*%	c #5E5B42",
"=%	c #9B996E",
"-%	c #B8BA82",
";%	c #C1CE86",
">%	c #57533C",
",%	c #5A9038",
"'%	c #3F6726",
")%	c #ADA87B",
"!%	c #BDC684",
"~%	c #B9BF83",
"{%	c #BCC685",
"]%	c #878661",
"^%	c #736F51",
"/%	c #BBBE84",
"(%	c #BECB85",
"_%	c #BAC283",
":%	c #568935",
"<%	c #49722B",
"[%	c #888761",
"}%	c #C0C686",
"|%	c #C5D288",
"1%	c #5F963B",
"2%	c #49702B",
"3%	c #BBC283",
"4%	c #888661",
"5%	c #BABA84",
"6%	c #898A61",
"7%	c #919865",
"8%	c #909565",
"9%	c #949D67",
"0%	c #929B66",
"a%	c #68674A",
"b%	c #58553D",
"c%	c #919366",
"d%	c #929A66",
"e%	c #939B66",
"f%	c #97A067",
"g%	c #797555",
"h%	c #506236",
"i%	c #659F40",
"j%	c #699A3E",
"k%	c #658E39",
"l%	c #7F6449",
"m%	c #C59C74",
"n%	c #CDA278",
"o%	c #A98663",
"p%	c #6A533C",
"q%	c #B7916C",
"r%	c #34401C",
"s%	c #5C9239",
"t%	c #82B34A",
"u%	c #9E7D5C",
"v%	c #D1A67C",
"w%	c #84684D",
"x%	c #EDBC8C",
"y%	c #E3B486",
"z%	c #3B4521",
"A%	c #649E3E",
"B%	c #060606",
"C%	c #2F2318",
"D%	c #426627",
"E%	c #324D1C",
"F%	c #161616",
"G%	c #735B43",
"H%	c #EAB98A",
"I%	c #A3815F",
"J%	c #604B36",
"K%	c #DAAD81",
"L%	c #241D16",
"M%	c #121212",
"N%	c #67953B",
"O%	c #39541F",
"P%	c #1B1B1B",
"Q%	c #0F1010",
"R%	c #80654A",
"S%	c #927354",
"T%	c #937455",
"U%	c #2F251B",
"V%	c #040404",
"W%	c #705840",
"X%	c #927355",
"Y%	c #53412F",
"Z%	c #141414",
"`%	c #7AA945",
" &	c #171717",
".&	c #0F0F0F",
"+&	c #7DAC47",
"@&	c #334F1C",
"#&	c #151515",
"$&	c #101010",
"%&	c #0E0E0E",
"&&	c #76A543",
"*&	c #2C4918",
"=&	c #0C0C0C",
"-&	c #131313",
";&	c #080808",
">&	c #030303",
",&	c #5F9139",
"'&	c #558734",
")&	c #588C36",
"!&	c #5B9239",
"~&	c #3E6425",
"{&	c #233C14",
"]&	c #7BB048",
"^&	c #91C954",
"  .   + @   # $ % & * = - ; # @ @ + > > , = ' ) ! ~   {   { ] ) @ ^ / = ( _ : { ~ < > [ ' # @ {   .   + @   # $ % & * = - ; # @ ",
"^ # { * } $ # | 1 $ < : 2 3 # 4 * + + ; { 5 6 @ : 7 8 9 0 0 a b c d d d e f g , ~ . h i : j { ) ^ # { * } $ # | 1 $ < : 2 3 # 4 ",
"} ^ { % k k ~ 4 5 # ~ + ' ] ^ l # : # > l 2 , + m n o p q q r s t u u u v w x y # # . 5 2 # > k } ^ { % k k ~ 4 5 # ~ + ' ] ^ l ",
"- z ] i   # { @ ; = j ' 6 j % . = 1 < . | > ^ A B C D E F G t H I J F K L J M N O   @ + | 4 | { - z ] i   # { @ ; = j ' 6 j % . ",
"{ | ] { @   ~ : l P + h h * ; :   Q z 1 2 [ R S T F K U E V W G F F L V X L Y Z `  .5   { _ +   { | ] { @   ~ : l P + h h * ; : ",
"> ~ ~ Q | . [ 5 % ; + . ' ..2 : # # 5 ( $ +.@.#.$.U %.&.*.=.-.;.V >.I ,.'.H ).!.~.{.].' # ! { & > ~ ~ Q | . [ 5 % ; + . ' ..2 : ",
"> < ..^.2 2 & 6 > { Q P ^ l # * ! # ~ ~ ~ /.(.,._.:.<.[.}.|.-.}.1.%.-.[.2.3.}.4.5.6.3 - , | % & > < ..^.2 2 & 6 > { Q P ^ l # * ",
") ^.7.# ~ ' 4 h ] : - z k ; 1 4 # : # ~ { 8.9.0.a.b.c.d.d.e.q e.f.g.h.c.d.d.d.}.i.j.k.Q % ' P } ) ^.7.# ~ ' 4 h ] : - z k ; 1 4 ",
"> | # 3 | . - ].{ # : ^.1 ; ^.@ : + ]./ l l.m.n.d.o.d.d.d.d.s d.p.q.c.d.d.d.d.d.o._.r.s.!   ].6 > | # 3 | . - ].{ # : ^.1 ; ^.@ ",
"6 @ ) 3 . { # _ .   : & 1 + ) : : : { k t.u.v.d.d.d.d.d.d.d.d.d.d.d.d.d.d.d.d.d.d.w.x.y.; / 7.# 6 @ ) 3 . { # _ .   : & 1 + ) : ",
"j ) ] : # j : #   + : + . : # j > s.4 * z.A.d.B.d.d.d.d.d.d.d.d.d.d.d.d.d.d.d.d.d.s C.D.E.z + : j ) ] : # j : #   + : + . : # j ",
"{ j : 5 F.j ' ; . # ' = 2 # @ h > ( G.H.I.J.K.L.d.M.d.d.d.d.d.d.d.d.d.d.d.d.d.d.d.N.O.P.Q.< . { { j : 5 F.j ' ; . # ' = 2 # @ h ",
"! { 5 ( = { @ Q ; : ) = P : : : # & R.S.T.U.V.n.N.W.d.d.d.d.d.d.d.d.d.d.d.d.d.d.X.Y.Z.`. +: { .+! { 5 ( = { @ Q ; : ) = P : : : ",
"h   s.& : # : 5 l : ~ = < , : { 1 k ++@+#+$+%+M N.&+d.d.d.d.d.d.d.d.d.d.d.d.d.d.*+c.X.=+-+{ { } h   s.& : # : 5 l : ~ = < , : { ",
"; i P j [ F.; { k @ : # l - : * k { k ;+>+,+'+d.N.&+d.d.d.d.d.d.d.d.d.d.d.)+o.d.B.!+~+{+]+( ^ ..; i P j [ F.; { k @ : # l - : * ",
"  6 ~ F.5 . _ 1 4 ; @ . * { 2 k < % ^+/+(+_+o.:+<+[+d.d.d.d.d.d.:+:+d.d.d.e.}+d.o.|+' 1+2+  s.s.  6 ~ F.5 . _ 1 4 ; @ . * { 2 k ",
"# 5 Q / / [ # 5 z E.- @ . 5   2 > | 3+4+r d.5+5+6+7+8+d.9+0+d.d.a+b+d.d.d.=.c+d+d.e+f+g+h+, $ i # 5 Q / / [ # 5 z E.- @ . 5   2 ",
"+ > | * - ! # : @ % E.< j @ = z ^.{ i+j+k+l+m+n+o+d.p+d.q+r+d.d.s+t+d.d.d.u+v+w+x+u+r+y+z+_ _   + > | * - ! # : @ % E.< j @ = z ",
"  . : : . < 2 : : . ..l j . / 7.. ! ( A+B+C+C+D+E+A.r d.q+r+d.d.s+F+r d.d.d.G+H+5+A.I+J+: : # ~   . : : . < 2 : : . ..l j . / 7.",
": # @ ) [ 4 Q l 3 ~ & Q + } 7.~ : : : . K+L+M+N+O+P+Q+R+S+n+T+<+U+V+W+X+Y+Z+`+ @.@+@@@#@. @ h . : # @ ) [ 4 Q l 3 ~ & Q + } 7.~ ",
"@   ( 5 + : : 2 2 @ j ! ].Q # j . ~ ~ ~ # $@%@&@*@=@F+-@;@$+C.>@,@'@)@!@p+~@{@]@^@/@E.* : ! @ . @   ( 5 + : : 2 2 @ j ! ].Q # j ",
"! _ } + . 5 ] j ~ : ; 5 ] # ) 3 @ j ]   l Q (@_@:@<@[@}@|@1@2@3@4@5@6@7@8@<@9@0@_@a@6 [ # # # ~ ! _ } + . 5 ] j ~ : ; 5 ] # ) 3 ",
"  k s.: Q % ! 5 : + ^ { +     4 Q ] ! 4 | @ h+b@: 8 c@d@e@f@'@g@h@i@j@k@l@m@n@2 o@p@: {   h > &   k s.: Q % ! 5 : + ^ { +     4 ",
"^ > [ 1 / ~ . > & ) = +   +   + l s.i h ! # q@r@s@t@u@v@w@x@w@x@y@z@y@y@A@B@C@D@E@F@~ j j   3 z ^ > [ 1 / ~ . > & ) = +   +   + ",
"z ( .+/ * 4 / 4 4 _ * 3 k % 4 ~ # ..].j ; G@H@I@J@K@L@M@N@N@O@O@O@P@P@O@Q@R@S@T@U@V@W@~ # + ~ & z ( .+/ * 4 / 4 4 _ * 3 k % 4 ~ ",
"= % .+> ^.} ; : 3 * 4 { @ = 4 ..].].4 ! | X@Y@Z@`@ #.#+#@#_@_@_@_@_@##$#%#&#*#=#`@-#;#>#4 k < # = % .+> ^.} ; : 3 * 4 { @ = 4 ..",
"! h 6 i | { # {   > 2 : = ^ + ; 7.6 ].,#'#)#!#~#{#]#^#/#(#_#:#:#:#:#<#[#}#|#{#{#{#1#2#3#4#^.z .+! h 6 i | { # {   > 2 : = ^ + ; ",
"F.h ) h _ 1 {   { + j - ; > + : < 3 i 5#6#]#~#~#{#{#{#{#7#8#9#9#9#9#0#a#b#{#{#{#{#!#{#c#d#  P | F.h ) h _ 1 {   { + j - ; > + : ",
"  6 ) @ { ..1 @ ! + ! 5 4 #   . ~ . ] e#6#]#~#~#{#{#{#{#{#{#{#{#{#{#{#{#{#{#{#{#{#!#{#c#d#  # .   6 ) @ { ..1 @ ! + ! 5 4 #   . ",
": . 6 ! : = E.= ].4 3 @ ) @ ) # + = { f#6#]#~#~#{#{#{#{#{#{#{#{#{#{#{#{#{#{#{#{#{#!#{#c#d#{ : ~ : . 6 ! : = E.= ].4 3 @ ) @ ) # ",
"@ > i # ! ; 4 * Q k ^ Q @ h { ^ } k # g#6#h#i#j#{#{#{#{#{#{#{#{#{#{#{#{#{#{#{#{#]#k#{#c#d#~ ~ ) @ > i # ! ; 4 * Q k ^ Q @ h { ^ ",
"> = ~ & P 4 P 3 7.# : k ].! 4 Q < : { l#m#n#o#p#1#{#{#{#{#{#{#{#{#{#{#{#{#{#{#{#-#q#r#s#t#) ) ! > = ~ & P 4 P 3 7.# : k ].! 4 Q ",
"@ = . P k 2 % 4 , # : # h ) ].# = ^ : f#u#v#w#x#-#{#{#{#{#{#{#{#{#{#{#{#{#{#{#y#z#A#B#C#D#! 6 ) @ = . P k 2 % 4 , # : # h ) ].# ",
"k , = _ 2 : P l + ].# : ' h { ' = [   E#F#<#v#x#G#{#{#{#{#{#{#{#{#{#{#{#{#{#{#j#H#I#J#K#L#{ ! @ k , = _ 2 : P l + ].# : ' h { ' ",
"4 + > l 4 _ { 2 _ 3 ~ { # j { @ | h > M#F#<#v#x#G#{#{#{#{#{#{#{#{#{#{#{#{#{#{#j#H#I#J#K#L#] ~ ' 4 + > l 4 _ { 2 _ 3 ~ { # j { @ ",
"< k / } $   # : ' j { ' { > & k 5 > 7.N#F#<#v#x#G#{#{#{#{#{#{#{#{#{#{#{#{#{#{#j#H#I#J#K#L#2 + _ < k / } $   # : ' j { ' { > & k ",
"; z * # @ @ { : { : : j P , ; 7.. 3 > f#F#<#v#x#G#{#{#{#{#{#{#{#{#{#{#{#{#{#{#j#H#I#J#K#L#( ^ _ ; z * # @ @ { : { : : j P , ; 7.",
"> & : # # # + : + P ; # k 2 - l 2 ~ j f#F#O#P#x#G#{#{#{#{#{#{#{#{#{#{#{#{#{#{#j#H#I#J#K#L#+ 4 ^ > & : # # # + : + P ; # k 2 - l ",
"' { : . ! $ ] # # 5 l * ' ^ Q   . + { Q#F#O#R#x#G#{#{#{#{#{#{#{#{#{#{#{#{#{#{#j#H#I#J#K#L## . i ' { : . ! $ ] # # 5 l * ' ^ Q   ",
"# . 2 ].# #   ' : + { 3 @ / & 2 1 >   g#F#O#R#x#G#{#{#{#{#{#{#{#{#{#{#{#{#{#{#j#H#I#J#K#L#$ { # # . 2 ].# #   ' : + { 3 @ / & 2 ",
"# # 4 1 : : # 5 2   _ @ 1 } 2 % ^ # + f#F#O#R#x#G#{#{#{#{#{#{#{#{#{#{#{#{#{#{#j#H#I#J#K#L#> ..= # # 4 1 : : # 5 2   _ @ 1 } 2 % ",
"* : Q & 2 ^ 3 - < : 4 4 4 ^ Q ^ : .   l#F#O#R#x#G#{#{#{#{#{#{#{#{#{#{#{#{#{#{#j#H#I#J#K#L## ^ S#* : Q & 2 ^ 3 - < : 4 4 4 ^ Q ^ ",
"S#* h = l ; 2 - = { 2 / > 1 l { ! ~ @ T#F#U#V#x#G#{#{#{#{#{#{#{#{#{#{#{#{#{#{#j#H#W#X#Y#L#j + * S#* h = l ; 2 - = { 2 / > 1 l { ",
"- z 5 [ ' 2 4 / % & : l ..| 2 ~ k % % Z#`# $.$d#+$@$@$@$@$@$@$@$@$@$@$@$@$@$@$#$p#$$%$&$*$  . : - z 5 [ ' 2 4 / % & : l ..| 2 ~ ",
"# - 6 i ^.P # . , P ! = / _ P ^.Q , < g#=$-$;$_@>$,$'$'$'$'$'$'$'$'$'$'$'$'$'$)$!$~${${$]$( z ^ # - 6 i ^.P # . , P ! = / _ P ^.",
"E.) ) % ... & # : : : . $ 5 1 = { ) s.^$/$($_$_@:$<$[$<$}$|$1$2$[$3$4$5$<$6$7$8$9$0$a$b$c$5 s.E.E.) ) % ... & # : : : . $ 5 1 = ",
"% ..h > . : * ; : < # : # . j # @ # { 2+d$e$f$_@g$h$i$j$k$l$m$n$o$p$p$q$r$s$t$u$9$v$w$x$y$| { @ % ..h > . : * ; : < # : # . j # ",
". ].i   : :   P - Q { . < .   ~ # : . , z$A$B$C$g$D$m$E$E$h$s$r$F$G$H$o$n$I$J$u$K$L$M$N$O$  # . . ].i   : :   P - Q { . < .   ~ ",
"  .   + @   # $ % & * = - ; # @ @ + > > , P$Q$R$g$s$F$p$F$p$S$T$U$V$W$H$I$h$X$u$Y$Z$`$ %' # @ {   .   + @   # $ % & * = - ; # @ ",
"^ # { * } $ # | 1 $ < : 2 3 # 4 * + + ; { 5 6 .%+%@%o$s$#%$%%%&%*%=%-%;%h$r$E$u$>%,%h i : j { ) ^ # { * } $ # | 1 $ < : 2 3 # 4 ",
"} ^ { % k k ~ 4 5 # ~ + ' ] ^ l # : # > l 2 , '%)%j$!%k$n$~%{%]%^%/%o$(%_%h$H$u$>%:%. 5 2 # > k } ^ { % k k ~ 4 5 # ~ + ' ] ^ l ",
"- z ] i   # { @ ; = j ' 6 j % . = 1 < . | > ^ <%)%W$q$p$D$m$F$[%^%}%|%q$_%h$X$u$>%1%@ + | 4 | { - z ] i   # { @ ; = j ' 6 j % . ",
"{ | ] { @   ~ : l P + h h * ; :   Q z 1 2 [ > 2%)%3%o$n$F$I$q$4%^%5%W$W$~%r$h$u$>%# 5   { _ +   { | ] { @   ~ : l P + h h * ; : ",
"> ~ ~ Q | . [ 5 % ; + . ' ..2 : # # 5 ( $ . + 5#6%7%8%9%0%9%9%a%b%c%d%d%7%e%f%g%h%i%].' # ! { & > ~ ~ Q | . [ 5 % ; + . ' ..2 : ",
"> < ..^.2 2 & 6 > { Q P ^ l # * ! # ~ ~ ~ ~ j : j%k%l%m%n%n%B$o%p%O@n%n%n%q%r%f s%  3 - , | % & > < ..^.2 2 & 6 > { Q P ^ l # * ",
") ^.7.# ~ ' 4 h ] : - z k ; 1 4 # : # ~ {   s.) = t%u%k@w@w@w@v%w%x%w@w@w@y%z%A%! ( s.Q % ' P } ) ^.7.# ~ ' 4 h ] : - z k ; 1 4 ",
"> | # 3 | . - ].{ # : ^.1 ; ^.@ : + ]./ l @ 1 } o@B%u%k@w@w@w@v%w%x%w@w@w@y%C%D%~ $ } s.!   ].6 > | # 3 | . - ].{ # : ^.1 ; ^.@ ",
"6 @ ) 3 . { # _ .   : & 1 + ) : : : { k / % F./ E%F%G%H%w@w@y@I%J%K%w@w@w@O@L%M%N%@ | ].; / 7.# 6 @ ) 3 . { # _ .   : & 1 + ) : ",
"j ) ] : # j : #   + : + . : # j > s.4 * < 3 F.^.O%P%Q%R%S%S%T%U%V%W%S%S%X%Y%F%Z%`%2 ' ) E.z + : j ) ] : # j : #   + : + . : # j ",
"{ j : 5 F.j ' ; . # ' = 2 # @ h > ( ..z s.) @ P O%P% &F%F%F%M%.&B%Z%F%F%F%F%##Z%+&* ~ % E.< . { { j : 5 F.j ' ; . # ' = 2 # @ h ",
"! { 5 ( = { @ Q ; : ) = P : : : # & .   i F.F.$ @&#& & & & & &$&B%Z% & & & & &%&&&k h / 3 : { .+! { 5 ( = { @ Q ; : ) = P : : : ",
"h   s.& : # : 5 l : ~ = < , : { 1 k : #   ! F.6 *&=&-&-&-&-&Z%;&>&.&-&-&-&-&M%V%,&> 6 | ' { { } h   s.& : # : 5 l : ~ = < , : { ",
"; i P j [ F.; { k @ : # l - : * k { k / ..[ F.6 ,%'&>&>&>&>&>&)&!&~&>&>&>&>&{&]&^&7.6 ) 6 ( ^ ..; i P j [ F.; { k @ : # l - : * ",
"  6 ~ F.5 . _ 1 4 ; @ . * { 2 k < % E.4 ' @ + 5 j ! + Q ^.    > 1 5 # 1 / { % S#P + i # :   s.s.  6 ~ F.5 . _ 1 4 ; @ . * { 2 k "};
